<svg width="33" height="28" viewBox="0 0 33 28" fill="none" xmlns="http://www.w3.org/2000/svg">
<path d="M31.9667 23.4667C31.9667 24.2181 31.6682 24.9388 31.1369 25.4701C30.6055 26.0015 29.8848 26.3 29.1334 26.3H3.63338C2.88194 26.3 2.16127 26.0015 1.62991 25.4701C1.09856 24.9388 0.800049 24.2181 0.800049 23.4667V7.88332C0.800049 7.13187 1.09856 6.4112 1.62991 5.87985C2.16127 5.3485 2.88194 5.04999 3.63338 5.04999H9.30005L12.1334 0.799988H20.6334L23.4667 5.04999H29.1334C29.8848 5.04999 30.6055 5.3485 31.1369 5.87985C31.6682 6.4112 31.9667 7.13187 31.9667 7.88332V23.4667Z" stroke="#1E1E1E" stroke-width="1.6" stroke-linecap="round" stroke-linejoin="round"/>
<path d="M16.3834 20.6333C19.513 20.6333 22.05 18.0963 22.05 14.9667C22.05 11.837 19.513 9.29999 16.3834 9.29999C13.2538 9.29999 10.7167 11.837 10.7167 14.9667C10.7167 18.0963 13.2538 20.6333 16.3834 20.6333Z" stroke="#1E1E1E" stroke-width="1.6" stroke-linecap="round" stroke-linejoin="round"/>
</svg>
