<?xml version="1.0" encoding="UTF-8"?>
<svg version="1.1" xmlns="http://www.w3.org/2000/svg" width="2000" height="2000">
<path d="M0 0 C1.5349411 -0.00101212 1.5349411 -0.00101212 3.10089111 -0.00204468 C78.69786858 0.07637999 153.47397603 17.1456225 300.6875 96.25 C302.27498047 97.41402344 302.27498047 97.41402344 303.89453125 98.6015625 C319.80065416 110.40086206 335.06122475 122.89557477 349.6875 136.25 C350.62078125 137.09046875 351.5540625 137.9309375 352.515625 138.796875 C362.08655494 147.44387854 371.54944836 156.33343168 379.8984375 166.18359375 C381.72436007 168.29257418 383.6187632 170.32830167 385.52612305 172.36352539 C391.46106847 178.71938893 396.86775477 185.37979826 402.16162109 192.27392578 C403.81968438 194.42118406 405.49614253 196.55317471 407.17578125 198.68359375 C413.99069307 207.34594904 420.56475902 216.08208626 426.6875 225.25 C426.3575 225.91 426.0275 226.57 425.6875 227.25 C416.12960925 216.78824433 416.12960925 216.78824433 412.25 212.3125 C404.76938991 203.74348706 397.02787783 195.49425509 389 187.4375 C388.29955566 186.73246338 387.59911133 186.02742676 386.87744141 185.30102539 C382.30938498 180.74639495 377.57322288 176.4591899 372.6875 172.25 C371.57758808 171.26378453 370.46944204 170.27557723 369.36328125 169.28515625 C343.26021199 146.11858544 314.13617458 127.15676357 283.6875 110.25 C282.93098145 109.82509277 282.17446289 109.40018555 281.39501953 108.96240234 C215.11920938 71.91080274 137.00170582 53.95159083 61.375 54.0625 C60.21238144 54.06340637 60.21238144 54.06340637 59.02627563 54.06433105 C-9.11062995 54.20688234 -75.30303528 69.41112789 -137.3125 97.25 C-138.26495605 97.67394043 -139.21741211 98.09788086 -140.19873047 98.53466797 C-154.83776923 105.09407833 -168.59504424 112.9542172 -182.3125 121.25 C-183.06901855 121.70375 -183.82553711 122.1575 -184.60498047 122.625 C-204.97500027 134.87476526 -224.05809964 149.05499635 -242.3125 164.25 C-243.31796875 165.08015625 -244.3234375 165.9103125 -245.359375 166.765625 C-261.67302076 180.32390981 -277.64555471 194.99662205 -291.3125 211.25 C-292.19790934 212.27326988 -293.08476704 213.2952874 -293.97265625 214.31640625 C-317.29996175 241.20211429 -337.17243312 270.03751627 -354.3125 301.25 C-354.80459961 302.14235352 -355.29669922 303.03470703 -355.80371094 303.95410156 C-380.83291786 349.664566 -397.71806532 400.68778561 -405.3125 452.25 C-405.03164551 451.57235596 -404.75079102 450.89471191 -404.46142578 450.1965332 C-395.48878335 428.60941111 -386.11183452 407.45613451 -374.3125 387.25 C-373.89419922 386.53312012 -373.47589844 385.81624023 -373.04492188 385.07763672 C-362.64115778 367.38726686 -351.13568316 350.27897895 -338.3125 334.25 C-337.6525 333.40953125 -336.9925 332.5690625 -336.3125 331.703125 C-325.10524358 317.51329228 -313.2237601 303.91610959 -300.3125 291.25 C-297.49888643 288.45083992 -294.70594633 285.63298364 -291.9296875 282.796875 C-285.57312536 276.33008836 -279.2314277 270.08832914 -272.09375 264.47265625 C-270.0638776 262.8504689 -268.10323234 261.21204829 -266.15625 259.49609375 C-256.98966978 251.41883659 -247.30834549 244.2659885 -237.3125 237.25 C-236.1900501 236.45840999 -235.06764824 235.66675185 -233.9453125 234.875 C-231.73968045 233.32543414 -229.53014751 231.78229413 -227.3125 230.25 C-226.6525 230.58 -225.9925 230.91 -225.3125 231.25 C-226.22128906 232.02601563 -227.13007812 232.80203125 -228.06640625 233.6015625 C-237.37313622 241.58554659 -246.4505469 249.77477788 -255.3125 258.25 C-255.83360352 258.74773926 -256.35470703 259.24547852 -256.89160156 259.75830078 C-262.77417471 265.41165775 -268.14030313 271.2802402 -273.21875 277.6640625 C-275.07096903 279.95169122 -276.99347676 282.09893907 -279 284.25 C-298.06765771 305.55422194 -312.90518144 331.36919022 -325.25146484 357.05371094 C-325.97220284 358.5456021 -326.70203826 360.03312543 -327.43994141 361.51660156 C-343.78015306 394.46902173 -353.44183494 430.89886311 -358.3125 467.25 C-358.39970306 467.89312134 -358.48690613 468.53624268 -358.57675171 469.19885254 C-360.43709543 483.33607359 -360.67087866 497.38083575 -360.625 511.625 C-360.62276428 513.34095871 -360.62276428 513.34095871 -360.6204834 515.09158325 C-360.5793438 532.66970531 -359.97488256 549.85035946 -357.3125 567.25 C-357.17859863 568.22291992 -357.04469727 569.19583984 -356.90673828 570.19824219 C-354.67664752 586.18461403 -350.1207516 602.37348471 -337.3125 613.25 C-319.82707067 626.37475991 -303.35588984 628.08635989 -282.08434486 625.95362854 C-279.69004497 625.71392078 -277.29522749 625.48016384 -274.90019226 625.2479248 C-268.09614045 624.58708375 -261.29314851 623.91562608 -254.49047852 623.24072266 C-250.31146467 622.82652881 -246.13183755 622.41903156 -241.95180321 622.01527405 C-240.37498936 621.86158434 -238.79841979 621.70536329 -237.22213173 621.54637146 C-224.49537375 620.26291363 -211.76438594 619.24995342 -199.0625 621.375 C-198.26875977 621.50624268 -197.47501953 621.63748535 -196.65722656 621.77270508 C-167.05232562 627.07267301 -141.90121448 643.64530198 -124.640625 668.16796875 C-123.3125 670.25 -123.3125 670.25 -123.3125 671.25 C-124.14806931 671.25586624 -124.98363861 671.26173248 -125.8445282 671.26777649 C-133.77266183 671.32601494 -141.70052301 671.39826594 -149.62839031 671.48571491 C-153.70284176 671.5301788 -157.77719872 671.56948545 -161.85180664 671.59643555 C-165.79425001 671.62271078 -169.73632491 671.6632776 -173.67853737 671.71318626 C-175.17214131 671.72969319 -176.66580874 671.74130698 -178.15949059 671.74761391 C-191.80792339 671.81099499 -204.89298599 672.50802908 -215.3125 682.25 C-222.2630989 690.0809205 -226.10762369 699.04679669 -225.63671875 709.6015625 C-222.36445874 736.33159004 -201.85513752 762.78814498 -181.62109375 779.46875 C-179.2437718 781.19201467 -176.82895461 782.73781856 -174.3125 784.25 C-173.30445313 784.89066406 -172.29640625 785.53132813 -171.2578125 786.19140625 C-164.76334072 790.14358481 -158.16336228 793.3423674 -151.0625 796.0625 C-150.3619751 796.34029297 -149.6614502 796.61808594 -148.93969727 796.90429688 C-136.12763265 801.56787138 -121.86655579 802.5995032 -108.35033989 803.58666992 C-106.03958684 803.75597176 -103.72990084 803.93630304 -101.42018127 804.11914062 C-94.8693603 804.63571339 -88.31705421 805.13223996 -81.7644043 805.625 C-77.7163569 805.93015422 -73.66929454 806.24644035 -69.62260628 806.5690918 C-67.36497062 806.74559249 -65.10663884 806.90909396 -62.8480072 807.07226562 C-51.29701653 807.96163988 -41.67429611 809.68210328 -33.3125 818.25 C-30.51739129 821.92135311 -28.14747053 825.80274133 -25.79443359 829.76367188 C-24.0356727 832.71444963 -22.24700404 835.64617632 -20.45703125 838.578125 C-17.51114376 843.40692711 -14.57541128 848.24174165 -11.6484375 853.08203125 C-7.85713818 859.35133917 -4.05833371 865.61601948 -0.25 871.875 C0.31251465 872.79958008 0.8750293 873.72416016 1.45458984 874.67675781 C6.44610226 882.871524 11.48059128 891.0396 16.51586914 899.20751953 C21.79819458 907.78472319 27.03182109 916.39058472 32.25137329 925.00604248 C37.52770115 933.71377957 42.84381837 942.39594668 48.1875 951.0625 C50.11817148 954.19940241 52.04826555 957.336659 53.97802734 960.47412109 C55.05187869 962.21786428 56.12746631 963.96054064 57.20556641 965.70166016 C58.47672556 967.75562608 59.73965424 969.81438809 61 971.875 C61.65613281 972.93976562 62.31226563 974.00453125 62.98828125 975.1015625 C68.08350434 984.54236667 69.99520375 994.19514427 67.4765625 1004.7734375 C63.95535025 1015.82516309 58.1875036 1023.17547866 48.25 1028.98828125 C39.13100691 1033.47827327 28.54017381 1033.55903641 18.640625 1031.66796875 C3.27909376 1026.31100164 -4.08785342 1011.08400574 -10.9375 997.5625 C-12.17731093 995.13742799 -13.42200611 992.71488501 -14.66796875 990.29296875 C-15.13261284 989.38877197 -15.13261284 989.38877197 -15.60664368 988.46630859 C-18.84961761 982.17389934 -22.25715543 975.97664078 -25.68408203 969.78320312 C-28.63582513 964.41568358 -31.48008363 959.00383749 -34.25390625 953.54296875 C-34.59091049 952.88167969 -34.92791473 952.22039063 -35.27513123 951.5390625 C-36.94178454 948.26723723 -38.59812056 944.99087414 -40.23803711 941.70556641 C-40.84578481 940.5079316 -41.45392059 939.31049363 -42.0625 938.11328125 C-42.59359375 937.05407471 -43.1246875 935.99486816 -43.671875 934.90356445 C-45.32823142 932.22455584 -46.58395196 930.79394403 -49.3125 929.25 C-52.0109589 929.47197813 -52.0109589 929.47197813 -54.3125 930.25 C-55.46693845 933.64276634 -55.38016203 935.0781301 -54.046875 938.46484375 C-53.3991332 939.71294403 -52.73650584 940.95338499 -52.0625 942.1875 C-51.31423101 943.6167307 -50.5668863 945.04644557 -49.8203125 946.4765625 C-49.41458008 947.24387695 -49.00884766 948.01119141 -48.59082031 948.80175781 C-46.78239121 952.26526566 -45.05412637 955.76688931 -43.32104492 959.26855469 C-39.38987283 967.20720537 -35.38426057 975.10265969 -31.25 982.9375 C-30.8473291 983.70070557 -30.4446582 984.46391113 -30.02978516 985.25024414 C-27.88085731 989.3122419 -25.71401442 993.36413872 -23.53515625 997.41015625 C-22.85175171 998.68789917 -22.85175171 998.68789917 -22.15454102 999.99145508 C-21.28709824 1001.61288032 -20.41425044 1003.23143063 -19.53491211 1004.84643555 C-15.1901411 1012.98653635 -12.3080394 1021.5106784 -15.03515625 1030.6796875 C-18.62160335 1039.30458457 -23.8412165 1044.44625732 -32.3125 1048.25 C-40.21716525 1050.61248454 -47.2552767 1048.88357289 -54.3828125 1045.171875 C-66.09837269 1037.54527503 -71.791145 1020.69867018 -77.9609375 1008.7109375 C-80.95619452 1002.90773444 -84.04337722 997.16117117 -87.1875 991.4375 C-91.47582795 983.62940531 -95.71046285 975.79440226 -99.90722656 967.93682861 C-104.79312296 958.78963925 -109.69832957 949.65387722 -114.6875 940.5625 C-115.14584229 939.72509277 -115.60418457 938.88768555 -116.07641602 938.02490234 C-116.49205811 937.27031738 -116.9077002 936.51573242 -117.3359375 935.73828125 C-117.69606934 935.08384033 -118.05620117 934.42939941 -118.42724609 933.75512695 C-119.22620711 932.25262054 -119.22620711 932.25262054 -120.3125 931.25 C-122.31208364 931.20919217 -124.31295254 931.20745644 -126.3125 931.25 C-127.47078105 936.00585309 -127.22506918 938.39944675 -124.953125 942.71484375 C-124.42033936 943.74939697 -123.88755371 944.7839502 -123.33862305 945.84985352 C-122.75250244 946.95127686 -122.16638184 948.0527002 -121.5625 949.1875 C-120.65143679 950.95184928 -119.74040184 952.71621525 -118.83232117 954.48210144 C-118.2156416 955.68002203 -117.59706772 956.87696926 -116.97663879 958.07295227 C-114.19889551 963.43161551 -111.57802493 968.85565583 -109 974.3125 C-105.75110638 981.16451073 -102.46793716 987.99828204 -99.140625 994.8125 C-98.40794984 996.31501833 -97.67528385 997.81754112 -96.94262695 999.32006836 C-95.85447402 1001.55120586 -94.76510807 1003.78170618 -93.67172241 1006.01028442 C-92.65154756 1008.08989776 -91.63594918 1010.17169304 -90.62109375 1012.25390625 C-90.31637146 1012.87172974 -90.01164917 1013.48955322 -89.69769287 1014.12609863 C-85.34851097 1023.07886883 -83.39726321 1032.09633179 -86.03515625 1041.94921875 C-89.45776659 1050.11082802 -94.72787449 1055.30255876 -102.5625 1059.4375 C-111.85403073 1062.18272499 -119.42904164 1061.12724755 -128.3125 1057.25 C-134.30306855 1053.98790889 -137.15356389 1049.08781961 -140.08203125 1043.09765625 C-140.4283963 1042.39586746 -140.77476135 1041.69407867 -141.13162231 1040.97102356 C-144.65528414 1033.72205151 -147.72452607 1026.30400489 -150.72692871 1018.82730103 C-152.0662609 1015.49518245 -153.42292197 1012.17019789 -154.77832031 1008.84458923 C-155.86557586 1006.17654982 -156.95089246 1003.50772684 -158.03613281 1000.83886719 C-161.62185777 992.02946466 -165.22875466 983.22905222 -168.87139893 974.44302368 C-169.66195575 972.53116438 -170.44873609 970.61773889 -171.23162842 968.70272827 C-172.32744986 966.02314498 -173.43564672 963.34900495 -174.546875 960.67578125 C-174.86917084 959.87963409 -175.19146667 959.08348694 -175.52352905 958.26321411 C-177.24827778 954.15456304 -178.80976242 951.17460173 -182.3125 948.25 C-185.36669846 948.87597458 -185.36669846 948.87597458 -186.1381073 950.89341736 C-186.39117992 954.31320809 -185.30802023 956.75193159 -184.1027832 959.95532227 C-183.85576157 960.62098709 -183.60873993 961.28665192 -183.35423279 961.9724884 C-182.53418887 964.17445758 -181.69881915 966.37027458 -180.86328125 968.56640625 C-180.28754131 970.10339288 -179.71278288 971.64074749 -179.13896179 973.17845154 C-177.62279664 977.23356112 -176.09366882 981.28366122 -174.56170654 985.33282471 C-173.01865443 989.41763466 -171.48717612 993.50677479 -169.95507812 997.59570312 C-167.95896485 1002.92109384 -165.9590136 1008.24498615 -163.95071697 1013.56579494 C-163.19311555 1015.5754484 -162.43834714 1017.58614212 -161.68447876 1019.59719849 C-160.81664376 1021.90775102 -159.94243282 1024.21592753 -159.05941772 1026.52072144 C-158.69587189 1027.48446686 -158.33232605 1028.44821228 -157.95776367 1029.44116211 C-157.64675217 1030.25532089 -157.33574066 1031.06947968 -157.01530457 1031.90830994 C-154.90038098 1038.95507058 -155.98489865 1045.79734696 -159.3125 1052.25 C-162.71118575 1057.87090335 -168.30105537 1061.17982114 -174.58203125 1062.85546875 C-184.01022838 1064.2589657 -192.82441049 1061.25895758 -200.4140625 1055.71484375 C-208.32401479 1049.21209271 -212.01355186 1041.17230797 -215.5703125 1031.734375 C-215.95547531 1030.73283386 -216.34063812 1029.73129272 -216.73747253 1028.69940186 C-217.55615029 1026.56768621 -218.37108167 1024.43452852 -219.18252563 1022.30004883 C-220.44707261 1018.97482812 -221.72237576 1015.65391835 -223.00073242 1012.33398438 C-226.3537978 1003.61982755 -229.68642771 994.89794314 -233.0065918 986.17120361 C-233.76029388 984.19504636 -234.51844676 982.22067347 -235.27880859 980.24707031 C-236.14175209 978.00535783 -236.99577294 975.760178 -237.83837891 973.51074219 C-240.92544684 965.51189355 -244.71467923 957.87856011 -251.4375 952.3125 C-252.07945312 951.76722656 -252.72140625 951.22195313 -253.3828125 950.66015625 C-255.28758948 949.26820385 -257.17274439 948.23428758 -259.3125 947.25 C-258.3828125 940.609375 -258.3828125 940.609375 -257.75 937.375 C-255.93137527 924.38482335 -259.26561062 914.97804937 -266.3125 904.1875 C-268.54184522 901.50215235 -271.15397083 900.31986496 -274.25415039 898.80078125 C-277.40142418 897.18954023 -279.68771865 895.68967688 -282.3125 893.25 C-283.54262042 888.54232397 -283.36037013 884.18765149 -283.26074219 879.35791016 C-283.50155238 869.55057436 -287.59896269 860.05757647 -293.3125 852.25 C-293.80234375 851.55519531 -294.2921875 850.86039063 -294.796875 850.14453125 C-301.02628848 842.17273232 -310.38041222 837.61530606 -319.3125 833.25 C-319.168125 832.54875 -319.02375 831.8475 -318.875 831.125 C-316.53868348 819.18382665 -316.32272864 807.92812581 -323.1875 797.3125 C-329.75425182 788.32983208 -337.62303697 782.37815944 -348.3125 779.25 C-359.03793622 778.34414712 -369.4066807 779.74196655 -379.953125 781.65625 C-381.37777047 781.90414188 -382.80264207 782.1507372 -384.22772217 782.39611816 C-387.92375519 783.03556623 -391.61690236 783.69027343 -395.30950928 784.34918213 C-401.25824214 785.40749028 -407.21150684 786.44011749 -413.16417694 787.47599792 C-415.23001296 787.83751792 -417.2947909 788.20462273 -419.35943604 788.57287598 C-420.60883972 788.79310425 -421.85824341 789.01333252 -423.14550781 789.24023438 C-424.24308411 789.43564819 -425.3406604 789.63106201 -426.47149658 789.83239746 C-429.3125 790.25 -429.3125 790.25 -433.3125 790.25 C-434.98144531 788.26342773 -434.98144531 788.26342773 -436.640625 785.43359375 C-437.26727051 784.37575684 -437.89391602 783.31791992 -438.53955078 782.22802734 C-439.21507278 781.04854122 -439.88935202 779.86834262 -440.5625 778.6875 C-441.27180203 777.46295454 -441.98127797 776.23850979 -442.69091797 775.01416016 C-482.63518591 705.62932575 -506.38306815 629.15559052 -512.3125 549.25 C-512.38307617 548.32364746 -512.45365234 547.39729492 -512.52636719 546.44287109 C-518.46259982 464.23076042 -502.46521596 381.87289958 -444.3125 257.25 C-443.80428711 256.37424316 -443.29607422 255.49848633 -442.77246094 254.59619141 C-426.21432913 226.13454269 -406.83293545 198.89338067 -384.50634766 174.64746094 C-383.14018784 173.1545064 -381.78490413 171.65143206 -380.44677734 170.13330078 C-374.13150576 162.97640707 -367.4411584 156.2259515 -360.68286133 149.48999023 C-358.74639451 147.55890453 -356.81536044 145.62250118 -354.88476562 143.68554688 C-348.8640684 137.66131703 -342.8387937 131.73162919 -336.3125 126.25 C-335.22868136 125.30151772 -334.14660927 124.35103548 -333.06640625 123.3984375 C-324.12288755 115.59720704 -314.83042969 108.33507668 -305.3125 101.25 C-304.24539795 100.45142578 -304.24539795 100.45142578 -303.15673828 99.63671875 C-284.47156609 85.70230139 -264.73166716 73.46965272 -244.3125 62.25 C-243.00587402 61.52780273 -243.00587402 61.52780273 -241.67285156 60.79101562 C-216.02282963 46.71123077 -189.06549847 35.45918116 -161.3125 26.25 C-160.16281738 25.86505371 -159.01313477 25.48010742 -157.82861328 25.08349609 C-106.85099602 8.1665529 -53.68921352 0.0321989 0 0 Z " fill="#3B6A00" transform="translate(1027.3125,386.75)"/>
<path d="M0 0 C0.598125 0.20625 1.19625 0.4125 1.8125 0.625 C1.23075403 4.21930244 0.27846166 6.99920986 -1.453125 10.1953125 C-1.92435791 11.07727295 -2.39559082 11.9592334 -2.88110352 12.86791992 C-3.39471436 13.81900635 -3.9083252 14.77009277 -4.4375 15.75 C-34.51004564 72.58497716 -57.1875 134.51921495 -57.1875 199.625 C-57.00276123 199.03412598 -56.81802246 198.44325195 -56.62768555 197.83447266 C-47.39665584 168.5902564 -35.59028065 140.42659222 -18.8515625 114.6640625 C-18.40071289 113.96958008 -17.94986328 113.27509766 -17.48535156 112.55957031 C-16.65961281 111.32872873 -15.80467935 110.11662592 -14.91308594 108.93261719 C-13.21530593 106.64708814 -12.19754485 105.13477625 -12.140625 102.24609375 C-13.65794086 98.44714248 -15.73065535 95.12214117 -17.9375 91.6875 C-18.36804687 90.99720703 -18.79859375 90.30691406 -19.2421875 89.59570312 C-21.32464008 86.30679972 -23.4494496 83.23942665 -26.015625 80.30859375 C-28.1875 77.625 -28.1875 77.625 -28.1875 74.625 C-17.33460051 76.00339745 -8.67512961 83.15667105 -0.1875 89.625 C0.50472656 88.92503906 1.19695312 88.22507812 1.91015625 87.50390625 C4.96089649 84.45531366 8.09174213 81.49912574 11.25 78.5625 C11.79720703 78.04623047 12.34441406 77.52996094 12.90820312 76.99804688 C16.35026855 73.80038846 19.83435705 71.12708991 23.8125 68.625 C22.67753604 60.68025226 19.35617128 54.32563774 15.6875 47.296875 C14.21182901 44.46463245 12.92772775 41.62217457 11.8125 38.625 C13.4296875 37.82421875 13.4296875 37.82421875 15.8125 37.625 C18.05987441 39.15065661 19.93682033 40.63196545 21.9375 42.4375 C22.787677 43.18060425 22.787677 43.18060425 23.6550293 43.9387207 C28.93447978 48.60612542 33.93023718 53.54436082 38.8125 58.625 C39.71742188 58.13386719 39.71742188 58.13386719 40.640625 57.6328125 C43.18797299 56.45076973 45.03662038 56.47078447 47.8125 56.625 C47.34310305 59.36314889 46.90935774 61.4550587 45.5234375 63.88671875 C44.45592612 66.77149517 44.45592612 66.77149517 46.375 69.7890625 C47.17062325 70.95441163 47.98424535 72.1076125 48.8125 73.25 C49.65805499 74.48224871 50.50047473 75.7166543 51.33984375 76.953125 C51.75991699 77.56607422 52.17999023 78.17902344 52.61279297 78.81054688 C55.31836335 82.90248808 57.55007682 87.27759859 59.8125 91.625 C63.60786604 86.94692743 65.37048572 81.64314127 67.5 76.0625 C67.93916748 74.91225342 68.37833496 73.76200684 68.83081055 72.5769043 C75.42232389 54.98323059 80.65481135 37.04544271 84.2668457 18.60473633 C84.4443335 17.71294678 84.62182129 16.82115723 84.8046875 15.90234375 C85.02680908 14.73046509 85.02680908 14.73046509 85.25341797 13.53491211 C85.8125 11.625 85.8125 11.625 87.8125 9.625 C89.55000463 16.77810349 90.56487752 23.8750365 91.375 31.1875 C91.56896362 32.93027222 91.56896362 32.93027222 91.7668457 34.70825195 C92.12684792 38.01276368 92.47445956 41.31817538 92.8125 44.625 C92.88887695 45.37168945 92.96525391 46.11837891 93.04394531 46.88769531 C93.9972444 56.81322112 93.91077141 66.78881328 93.9375 76.75 C93.94026947 77.43983978 93.94303894 78.12967957 93.94589233 78.84042358 C93.95174089 80.83371132 93.94865508 82.82701899 93.9453125 84.8203125 C93.94362061 86.56852295 93.94362061 86.56852295 93.94189453 88.35205078 C93.81642443 91.52573423 93.40769311 94.50836317 92.8125 97.625 C93.30314941 97.2940332 93.79379883 96.96306641 94.29931641 96.62207031 C107.41068552 87.8246474 120.80047755 79.89947732 134.8125 72.625 C135.51842285 72.25036621 136.2243457 71.87573242 136.95166016 71.48974609 C146.78996942 66.30413219 157.10235537 62.64989277 167.625 59.125 C168.63348999 58.78586578 168.63348999 58.78586578 169.66235352 58.43988037 C181.07871557 54.625 181.07871557 54.625 185.8125 54.625 C185.5395759 57.80419699 184.6841962 58.75125748 182.36328125 61.03515625 C181.29216869 61.92932587 180.21207839 62.81281034 179.125 63.6875 C178.54556641 64.16574219 177.96613281 64.64398437 177.36914062 65.13671875 C172.6573951 69.00328544 167.85492817 72.75581682 163.04614258 76.50048828 C157.39842206 80.91147598 151.93245033 85.51864174 146.49511719 90.18505859 C144.71347832 91.70974026 142.9237659 93.22455505 141.1328125 94.73828125 C133.06488975 101.57106816 133.06488975 101.57106816 125.49438477 108.9440918 C123.79039798 110.64708919 122.01707485 112.20346409 120.18359375 113.765625 C115.5041734 117.83494235 111.12236172 122.16788707 106.75 126.5625 C105.98623047 127.32240234 105.22246094 128.08230469 104.43554688 128.86523438 C92.83667011 139.56066679 92.83667011 139.56066679 86.625 153.375 C86.46644531 154.35984375 86.30789063 155.3446875 86.14453125 156.359375 C86.03496094 157.10703125 85.92539063 157.8546875 85.8125 158.625 C87.23175781 157.62533203 87.23175781 157.62533203 88.6796875 156.60546875 C113.3230449 139.37122534 138.73668666 125.26241863 168.0625 117.875 C168.93914307 117.64852783 169.81578613 117.42205566 170.71899414 117.1887207 C175.39449355 116.08074808 179.51725313 115.52908447 184.32421875 115.8203125 C192.34586847 116.21266085 192.34586847 116.21266085 199.8125 113.625 C205.79185473 107.02176061 209.06981166 98.39181051 212.36035156 90.21240234 C213.6428629 87.04407321 215.00553004 83.93844061 216.4296875 80.83203125 C224.58962068 62.66135901 230.5263739 43.50414416 236.8125 24.625 C238.0775523 28.4201569 237.46153052 30.59465775 236.73046875 34.52734375 C236.60111435 35.2241777 236.47175995 35.92101166 236.33848572 36.63896179 C235.9036059 38.9491309 235.45377159 41.25597043 235 43.5625 C234.76733429 44.75573883 234.76733429 44.75573883 234.52996826 45.9730835 C223.82665093 100.38217843 204.063713 153.83848082 175.8125 201.625 C175.28156738 202.52412109 174.75063477 203.42324219 174.20361328 204.34960938 C163.79481526 221.88454359 152.59098675 238.55504027 140.22949219 254.76269531 C138.9077435 256.4998247 137.5969127 258.24458433 136.2890625 259.9921875 C127.1639609 272.11671827 117.07336691 283.40119537 106.7265625 294.48828125 C104.76323301 296.5927866 102.82233406 298.71485889 100.8984375 300.85546875 C96.41481842 305.835226 91.91780333 310.60300068 86.7734375 314.91796875 C84.5093273 316.88891727 82.41871829 318.98643365 80.3125 321.125 C76.30443271 325.1738965 72.14052252 328.92465023 67.8125 332.625 C66.37197266 333.89923828 66.37197266 333.89923828 64.90234375 335.19921875 C39.54943211 357.50596853 11.05428602 376.66520089 -18.41308594 393.07470703 C-21.17235294 394.61653609 -23.91800446 396.18088944 -26.6640625 397.74609375 C-61.3026592 417.25187661 -98.849563 431.32982683 -137.1875 441.625 C-137.88649414 441.8194873 -138.58548828 442.01397461 -139.30566406 442.21435547 C-147.89639331 444.59241956 -154.9581098 445.64067095 -163.3125 442.0625 C-171.34512538 437.50021402 -175.88416 429.24380147 -180.3125 421.4375 C-181.44992435 419.47285794 -182.58929728 417.5093429 -183.73046875 415.546875 C-184.30458496 414.55751953 -184.87870117 413.56816406 -185.47021484 412.54882812 C-188.11362937 408.04818378 -190.86273942 403.61587933 -193.625 399.1875 C-198.12414969 391.96177758 -202.58279473 384.71362905 -207 377.4375 C-211.9705567 369.252493 -216.97384872 361.08848063 -222 352.9375 C-227.6378096 343.79103537 -233.2406843 334.62424557 -238.8125 325.4375 C-239.16813019 324.85117798 -239.52376038 324.26485596 -239.89016724 323.6607666 C-241.65077294 320.75778774 -243.41093258 317.85453869 -245.17089844 314.95117188 C-253.1510526 301.78874811 -261.14612605 288.63716961 -269.27856445 275.56811523 C-272.18994019 270.88193287 -275.06572331 266.17718076 -277.90234375 261.4453125 C-278.52367187 260.41212891 -279.145 259.37894531 -279.78515625 258.31445312 C-280.97689456 256.32948773 -282.16343604 254.34138918 -283.34375 252.34960938 C-285.86030015 248.16428306 -288.36507029 244.25679207 -291.59765625 240.5859375 C-294.1875 237.625 -294.1875 237.625 -294.1875 235.625 C-294.76628906 235.35429688 -295.34507812 235.08359375 -295.94140625 234.8046875 C-298.19170561 233.62279114 -300.08499626 232.26140392 -302.125 230.75 C-312.52349437 223.84196538 -324.52881773 222.86804041 -336.64453125 222.02734375 C-338.20199851 221.90726798 -339.75934499 221.78561662 -341.3165741 221.66249084 C-345.38484329 221.34385447 -349.45411785 221.04126325 -353.52398682 220.74383545 C-360.02344566 220.26783544 -366.52147178 219.77423876 -373.01856041 219.26696968 C-375.25542611 219.09570886 -377.4928816 218.93579841 -379.73066711 218.77708435 C-403.87083464 216.97996371 -425.98421487 211.10964595 -445.1875 195.625 C-446.02925781 194.94824219 -446.87101563 194.27148438 -447.73828125 193.57421875 C-463.12856214 180.48170919 -474.81985648 160.72793057 -481.1875 141.625 C-481.62368593 136.06362944 -480.97945911 131.45459944 -478.1875 126.625 C-474.43496029 122.42771484 -470.06546671 119.00446634 -464.29100013 118.43942392 C-461.94864106 118.36398992 -459.61380509 118.35373212 -457.27023315 118.36430359 C-456.37125718 118.36047804 -455.47228121 118.35665249 -454.54606354 118.35271102 C-451.53309099 118.34239072 -448.52030935 118.34637142 -445.50732422 118.3503418 C-443.3471204 118.34599465 -441.18691812 118.3408115 -439.02671814 118.33485413 C-433.1566108 118.32144959 -427.28656779 118.32088735 -421.41644812 118.32341743 C-416.51367617 118.32448668 -411.61091727 118.31960466 -406.70814812 118.314812 C-395.13647687 118.30371065 -383.56483807 118.3032822 -371.99316406 118.30932617 C-360.06615475 118.31536019 -348.13926358 118.30307087 -336.21227443 118.2817561 C-325.9666436 118.26412109 -315.7210503 118.25814196 -305.47540486 118.26139385 C-299.35890501 118.26320464 -293.24248934 118.26059121 -287.12600327 118.24667931 C-281.36891899 118.23407564 -275.61201815 118.23606922 -269.8549366 118.24909019 C-267.7471021 118.25145041 -265.63925459 118.24874127 -263.53143501 118.24046707 C-243.07179112 118.16597447 -243.07179112 118.16597447 -234.1875 121.625 C-238.96567678 110.55430804 -243.889951 99.76358451 -250.17529297 89.45166016 C-253.23500516 84.25485296 -253.23500516 84.25485296 -252.9609375 80.62109375 C-252.70570313 79.96238281 -252.45046875 79.30367187 -252.1875 78.625 C-226.03413047 88.6660258 -201.90000323 110.68820443 -186.1875 133.625 C-185.58180176 134.50478516 -185.58180176 134.50478516 -184.96386719 135.40234375 C-177.4270823 146.51660486 -171.72514972 158.41724229 -166.1875 170.625 C-174.19967566 125.33295253 -186.30277919 81.8834001 -208.29052734 41.22314453 C-209.02843506 39.84618408 -209.02843506 39.84618408 -209.78125 38.44140625 C-210.22146484 37.63131104 -210.66167969 36.82121582 -211.11523438 35.98657227 C-212.23035847 33.53060792 -212.76519725 31.28120176 -213.1875 28.625 C-210.1875 27.625 -210.1875 27.625 -206.88671875 29.14453125 C-205.54191347 29.89546266 -204.20511378 30.66084271 -202.875 31.4375 C-202.1629541 31.84766357 -201.4509082 32.25782715 -200.71728516 32.68041992 C-159.11975751 57.06501817 -130.90613302 96.31577309 -118.1875 142.625 C-115.5901276 152.89467132 -113.37957977 163.26271569 -111.1875 173.625 C-110.10289238 169.69643013 -109.01851216 165.76779757 -107.93432617 161.83911133 C-107.56687287 160.50771464 -107.19936164 159.17633393 -106.83178711 157.8449707 C-106.65462158 157.20325928 -106.47745605 156.56154785 -106.29492188 155.90039062 C-106.11834549 155.26256149 -105.9417691 154.62473236 -105.75984192 153.96757507 C-105.23127188 152.04588864 -104.71364726 150.12120275 -104.19604492 148.1965332 C-103.58060483 146.01709163 -102.9132691 143.85040658 -102.1574707 141.71557617 C-99.44121113 133.75095064 -100.87846254 127.56359303 -103 119.5625 C-103.33150434 118.2434403 -103.66155818 116.92401529 -103.99023438 115.60424805 C-107.22721913 102.79989669 -111.00629074 90.15153546 -115.1875 77.625 C-115.47061035 76.77437988 -115.7537207 75.92375977 -116.04541016 75.04736328 C-123.25431594 53.73052129 -133.08976991 33.81738434 -144.94165039 14.71777344 C-146.12702961 12.72657793 -147.18017464 10.71099189 -148.1875 8.625 C-144.01241115 10.26881518 -141.16038145 13.30817029 -138.0625 16.4375 C-137.48846436 17.0164502 -136.91442871 17.59540039 -136.32299805 18.19189453 C-130.71434016 23.95255913 -125.85378393 30.09027826 -121.1875 36.625 C-120.41277344 37.68203125 -119.63804687 38.7390625 -118.83984375 39.828125 C-107.52250628 55.71548024 -88.1875 83.62168271 -88.1875 103.625 C-87.5275 103.625 -86.8675 103.625 -86.1875 103.625 C-85.97351562 102.86445312 -85.75953125 102.10390625 -85.5390625 101.3203125 C-83.64690506 96.14695719 -81.11914819 91.37287403 -78.5625 86.5 C-78.02270508 85.4697168 -77.48291016 84.43943359 -76.92675781 83.37792969 C-73.07946169 76.12152084 -69.02506973 69.27157689 -64.1875 62.625 C-63.53265625 61.69945312 -62.8778125 60.77390625 -62.203125 59.8203125 C-54.55362856 49.11694732 -46.24499288 39.15920303 -37.1875 29.625 C-36.63175293 29.03525391 -36.07600586 28.44550781 -35.50341797 27.83789062 C-7.83653527 -1.34340605 -7.83653527 -1.34340605 0 0 Z M29.8125 89.625 C28.51576398 92.16419006 27.22502163 94.70614238 25.9375 97.25 C25.57269531 97.96285156 25.20789062 98.67570312 24.83203125 99.41015625 C21.74198142 105.31073155 21.74198142 105.31073155 19.8125 111.625 C21.03740629 114.18392083 21.03740629 114.18392083 23.1875 116.5 C28.58952136 123.30428823 32.11931687 130.79663045 35.8125 138.625 C37.47891006 137.634245 37.47891006 137.634245 38.8125 135.625 C39.58464744 128.07411627 37.7708402 120.59952318 36.4375 113.1875 C36.21578125 111.91583984 35.9940625 110.64417969 35.765625 109.33398438 C34.60050066 102.72361718 33.33481784 96.16243035 31.8125 89.625 C31.1525 89.625 30.4925 89.625 29.8125 89.625 Z M182.08984375 134.32421875 C181.51689575 134.7108519 180.94394775 135.09748505 180.3536377 135.49583435 C178.48183917 136.76238963 176.61553795 138.03674421 174.75 139.3125 C174.11579132 139.74439636 173.48158264 140.17629272 172.82815552 140.62127686 C162.55554583 147.62300018 152.52507692 154.85944023 142.8125 162.625 C141.80703125 163.4190625 140.8015625 164.213125 139.765625 165.03125 C126.02823176 176.05220955 112.20122373 187.90466814 103.8125 203.625 C107.31746671 203.625 108.92965532 202.74378031 112.046875 201.17578125 C113.08875977 200.66031738 114.13064453 200.14485352 115.20410156 199.61376953 C116.31237305 199.06060059 117.42064453 198.50743164 118.5625 197.9375 C125.65741932 194.42035187 132.38743767 191.22519986 140.0625 189.25 C149.13295277 186.48187759 154.09230335 179.79815277 159.8125 172.625 C160.73262871 171.5048433 161.65318632 170.38503874 162.57421875 169.265625 C165.40150303 165.77901762 168.11410418 162.21181758 170.8125 158.625 C171.39241699 157.85897461 171.97233398 157.09294922 172.56982422 156.30371094 C174.45095793 153.812946 176.32116542 151.31436946 178.1875 148.8125 C178.77072021 148.03624268 179.35394043 147.25998535 179.95483398 146.46020508 C183.69723982 141.39498259 186.89368525 136.20518442 189.8125 130.625 C186.61580167 130.625 184.70587145 132.55454707 182.08984375 134.32421875 Z M5.8125 149.625 C4.84581284 153.39129355 3.88588748 157.15924576 2.93164062 160.92871094 C2.45000793 162.82573456 1.96335157 164.72148049 1.4765625 166.6171875 C-0.45095452 174.24694236 -2.04137629 181.83857848 -3.1875 189.625 C-2.47722656 188.89152344 -1.76695312 188.15804688 -1.03515625 187.40234375 C1.8125 184.625 1.8125 184.625 4.62890625 182.50390625 C7.77411591 179.85083466 10.424995 177.54011581 11.8125 173.625 C12.06602008 166.33392511 10.2986853 158.4668465 7.8125 151.625 C7.1525 150.965 6.4925 150.305 5.8125 149.625 Z " fill="#351C02" transform="translate(1298.1875,956.375)"/>
<path d="M0 0 C0.598125 0.20625 1.19625 0.4125 1.8125 0.625 C1.23075403 4.21930244 0.27846166 6.99920986 -1.453125 10.1953125 C-1.92435791 11.07727295 -2.39559082 11.9592334 -2.88110352 12.86791992 C-3.39471436 13.81900635 -3.9083252 14.77009277 -4.4375 15.75 C-34.51004564 72.58497716 -57.1875 134.51921495 -57.1875 199.625 C-57.00276123 199.03412598 -56.81802246 198.44325195 -56.62768555 197.83447266 C-47.39665584 168.5902564 -35.59028065 140.42659222 -18.8515625 114.6640625 C-18.40071289 113.96958008 -17.94986328 113.27509766 -17.48535156 112.55957031 C-16.65961281 111.32872873 -15.80467935 110.11662592 -14.91308594 108.93261719 C-13.21530593 106.64708814 -12.19754485 105.13477625 -12.140625 102.24609375 C-13.65794086 98.44714248 -15.73065535 95.12214117 -17.9375 91.6875 C-18.36804687 90.99720703 -18.79859375 90.30691406 -19.2421875 89.59570312 C-21.32464008 86.30679972 -23.4494496 83.23942665 -26.015625 80.30859375 C-28.1875 77.625 -28.1875 77.625 -28.1875 74.625 C-17.33460051 76.00339745 -8.67512961 83.15667105 -0.1875 89.625 C0.50472656 88.92503906 1.19695312 88.22507812 1.91015625 87.50390625 C4.96089649 84.45531366 8.09174213 81.49912574 11.25 78.5625 C11.79720703 78.04623047 12.34441406 77.52996094 12.90820312 76.99804688 C16.35026855 73.80038846 19.83435705 71.12708991 23.8125 68.625 C22.67753604 60.68025226 19.35617128 54.32563774 15.6875 47.296875 C14.21182901 44.46463245 12.92772775 41.62217457 11.8125 38.625 C13.4296875 37.82421875 13.4296875 37.82421875 15.8125 37.625 C18.05987441 39.15065661 19.93682033 40.63196545 21.9375 42.4375 C22.787677 43.18060425 22.787677 43.18060425 23.6550293 43.9387207 C28.93447978 48.60612542 33.93023718 53.54436082 38.8125 58.625 C39.71742188 58.13386719 39.71742188 58.13386719 40.640625 57.6328125 C43.18797299 56.45076973 45.03662038 56.47078447 47.8125 56.625 C47.34310305 59.36314889 46.90935774 61.4550587 45.5234375 63.88671875 C44.45592612 66.77149517 44.45592612 66.77149517 46.375 69.7890625 C47.17109196 70.95409149 47.98469595 72.10728595 48.8125 73.25 C49.65758464 74.49039519 50.50001082 75.73260553 51.33984375 76.9765625 C51.75991699 77.59047852 52.17999023 78.20439453 52.61279297 78.83691406 C54.31369543 81.37199946 55.86651623 83.97152253 57.375 86.625 C57.85066406 87.45 58.32632812 88.275 58.81640625 89.125 C60.6094399 93.6251629 60.22065226 96.61716034 58.4140625 101.078125 C57.76864852 102.35065643 57.10893333 103.61600328 56.4375 104.875 C56.08534424 105.55522217 55.73318848 106.23544434 55.37036133 106.9362793 C54.2014563 109.17534798 53.01009938 111.40115512 51.8125 113.625 C51.37953613 114.43340332 50.94657227 115.24180664 50.50048828 116.07470703 C49.1772119 118.53469951 47.84206939 120.98771443 46.5 123.4375 C46.07992676 124.20803711 45.65985352 124.97857422 45.22705078 125.77246094 C44.82599121 126.49336914 44.42493164 127.21427734 44.01171875 127.95703125 C43.65940186 128.59358643 43.30708496 129.2301416 42.9440918 129.88598633 C41.7478532 131.72434826 40.41276535 133.13254683 38.8125 134.625 C37.97311186 129.6633771 37.13705716 124.70120766 36.30395508 119.73852539 C36.02066916 118.05380455 35.73650649 116.36923087 35.45141602 114.68481445 C35.0394651 112.24990315 34.63077365 109.81446267 34.22265625 107.37890625 C34.09657486 106.63790176 33.97049347 105.89689728 33.84059143 105.13343811 C32.9809576 99.97725771 32.35424615 94.82441434 31.8125 89.625 C26.2786676 95.0054537 22.32181793 103.05643821 20.8125 110.625 C21.97123648 115.31702654 24.64839025 118.06873404 27.8125 121.625 C36.44604936 134.8174642 36.44604936 134.8174642 35.8125 140.625 C33.92003255 144.59850816 31.41358791 148.09307106 28.8125 151.625 C28.33425781 152.27839355 27.85601563 152.93178711 27.36328125 153.60498047 C23.89859071 158.31874867 20.37861182 162.98761931 16.8125 167.625 C16.07386719 168.60726563 15.33523438 169.58953125 14.57421875 170.6015625 C13.99285156 171.26929688 13.41148437 171.93703125 12.8125 172.625 C12.1525 172.625 11.4925 172.625 10.8125 172.625 C8.8325 162.23 8.8325 162.23 6.8125 151.625 C4.83395001 157.56064997 3.49535026 161.59100748 2.796875 167.4765625 C-0.51704906 189.65019382 -8.91247901 200.58580961 -26.1875 214.625 C-27.18362305 215.44371582 -28.17974609 216.26243164 -29.20605469 217.10595703 C-31.04302929 218.61259578 -32.88395316 220.11444484 -34.73046875 221.609375 C-37.17289673 223.61302021 -39.55558206 225.67508715 -41.9375 227.75 C-60.91952237 242.8753575 -86.22398704 245.90310147 -109.65429688 243.35693359 C-123.24321312 241.10168388 -136.9100905 233.63035292 -147.1875 224.625 C-147.87457031 224.09132813 -148.56164063 223.55765625 -149.26953125 223.0078125 C-156.56541153 217.09223389 -161.80925586 209.5670429 -167.36035156 202.07568359 C-169.90688235 198.66012025 -172.50129013 195.28206841 -175.09350586 191.90112305 C-180.86850524 184.36468292 -186.57442718 176.78276625 -192.1875 169.125 C-197.27713661 162.18611898 -202.42325839 155.29280729 -207.625 148.4375 C-208.27533203 147.57640625 -208.92566406 146.7153125 -209.59570312 145.828125 C-211.4375666 143.40890453 -213.30542555 141.01302482 -215.1875 138.625 C-215.72906738 137.91778809 -216.27063477 137.21057617 -216.82861328 136.48193359 C-220.11499583 132.41861 -223.20958671 129.9148164 -227.7734375 127.33984375 C-234.13710161 123.49490355 -236.18577263 118.95863129 -238.8125 112.1875 C-239.71005067 110.04431219 -240.61373589 107.9036835 -241.5234375 105.765625 C-241.96268555 104.72212891 -242.40193359 103.67863281 -242.85449219 102.60351562 C-245.05504103 97.68653836 -247.76743441 93.08965675 -250.63525391 88.53540039 C-252.36394838 85.67677051 -253.22907211 84.08290459 -252.921875 80.69921875 C-252.55835938 79.67248047 -252.55835938 79.67248047 -252.1875 78.625 C-226.03413047 88.6660258 -201.90000323 110.68820443 -186.1875 133.625 C-185.78370117 134.21152344 -185.37990234 134.79804687 -184.96386719 135.40234375 C-177.4270823 146.51660486 -171.72514972 158.41724229 -166.1875 170.625 C-174.19967566 125.33295253 -186.30277919 81.8834001 -208.29052734 41.22314453 C-208.78246582 40.3051709 -209.2744043 39.38719727 -209.78125 38.44140625 C-210.22146484 37.63131104 -210.66167969 36.82121582 -211.11523438 35.98657227 C-212.23035847 33.53060792 -212.76519725 31.28120176 -213.1875 28.625 C-210.1875 27.625 -210.1875 27.625 -206.88671875 29.14453125 C-205.54191347 29.89546266 -204.20511378 30.66084271 -202.875 31.4375 C-202.1629541 31.84766357 -201.4509082 32.25782715 -200.71728516 32.68041992 C-159.11975751 57.06501817 -130.90613302 96.31577309 -118.1875 142.625 C-115.5901276 152.89467132 -113.37957977 163.26271569 -111.1875 173.625 C-110.10289238 169.69643013 -109.01851216 165.76779757 -107.93432617 161.83911133 C-107.56687287 160.50771464 -107.19936164 159.17633393 -106.83178711 157.8449707 C-106.65462158 157.20325928 -106.47745605 156.56154785 -106.29492188 155.90039062 C-106.11834549 155.26256149 -105.9417691 154.62473236 -105.75984192 153.96757507 C-105.23127188 152.04588864 -104.71364726 150.12120275 -104.19604492 148.1965332 C-103.58060483 146.01709163 -102.9132691 143.85040658 -102.1574707 141.71557617 C-99.44121113 133.75095064 -100.87846254 127.56359303 -103 119.5625 C-103.33150434 118.2434403 -103.66155818 116.92401529 -103.99023438 115.60424805 C-107.22721913 102.79989669 -111.00629074 90.15153546 -115.1875 77.625 C-115.61216553 76.34906982 -115.61216553 76.34906982 -116.04541016 75.04736328 C-123.25431594 53.73052129 -133.08976991 33.81738434 -144.94165039 14.71777344 C-146.12702961 12.72657793 -147.18017464 10.71099189 -148.1875 8.625 C-144.01241115 10.26881518 -141.16038145 13.30817029 -138.0625 16.4375 C-137.48846436 17.0164502 -136.91442871 17.59540039 -136.32299805 18.19189453 C-130.71434016 23.95255913 -125.85378393 30.09027826 -121.1875 36.625 C-120.41277344 37.68203125 -119.63804687 38.7390625 -118.83984375 39.828125 C-107.52250628 55.71548024 -88.1875 83.62168271 -88.1875 103.625 C-87.5275 103.625 -86.8675 103.625 -86.1875 103.625 C-85.97351562 102.86445312 -85.75953125 102.10390625 -85.5390625 101.3203125 C-83.64690506 96.14695719 -81.11914819 91.37287403 -78.5625 86.5 C-78.02270508 85.4697168 -77.48291016 84.43943359 -76.92675781 83.37792969 C-73.07946169 76.12152084 -69.02506973 69.27157689 -64.1875 62.625 C-63.53265625 61.69945312 -62.8778125 60.77390625 -62.203125 59.8203125 C-54.55362856 49.11694732 -46.24499288 39.15920303 -37.1875 29.625 C-36.63175293 29.03525391 -36.07600586 28.44550781 -35.50341797 27.83789062 C-7.83653527 -1.34340605 -7.83653527 -1.34340605 0 0 Z " fill="#3B6A00" transform="translate(1298.1875,956.375)"/>
<path d="M0 0 C0.33 0 0.66 0 1 0 C1.05851387 0.853946 1.05851387 0.853946 1.11820984 1.72514343 C5.3396982 62.97336891 11.45497916 123.78311339 36.5 180.625 C36.81888184 181.35702637 37.13776367 182.08905273 37.46630859 182.84326172 C41.00016466 190.58400733 45.55772157 197.75793606 50 205 C50.45213867 204.04971924 50.90427734 203.09943848 51.37011719 202.12036133 C71.56889415 159.74666808 94.67920591 122.25815163 127 88 C127.95132812 86.98486328 127.95132812 86.98486328 128.921875 85.94921875 C133.87429785 80.81992365 139.4116904 76.41114994 145 72 C145.63260742 71.49629883 146.26521484 70.99259766 146.91699219 70.47363281 C155.93993131 63.31304902 165.0354428 56.6783889 175.10205078 51.06054688 C176.37899775 50.34700717 177.65077785 49.62414969 178.91748047 48.89257812 C204.3278371 34.23446688 232.97819214 26.34160841 262 23 C262.75635742 22.90428711 263.51271484 22.80857422 264.29199219 22.70996094 C273.12123263 21.73123981 281.98149272 21.84915968 290.85253906 21.86962891 C293.6257063 21.87500137 296.39871259 21.8696507 299.171875 21.86328125 C300.96093785 21.86394192 302.7500006 21.86522284 304.5390625 21.8671875 C305.35492828 21.86516327 306.17079407 21.86313904 307.01138306 21.86105347 C312.41046574 21.88274265 317.64219744 22.32600785 323 23 C322.67 23.66 322.34 24.32 322 25 C319.17392096 25.90926021 316.36234527 26.72103997 313.5 27.5 C276.21963023 38.18987004 240.52090475 56.7920785 211 82 C209.92664027 82.88905895 208.85237575 83.77702636 207.77734375 84.6640625 C193.67008068 96.40032316 180.82486642 109.15977605 170 124 C169.289646 124.9597876 169.289646 124.9597876 168.56494141 125.93896484 C146.33292852 156.07699482 130.30964359 189.47510907 120.5625 225.625 C120.23217773 226.84533936 119.90185547 228.06567871 119.56152344 229.32299805 C117.43407783 237.51477749 116.02547381 245.60217926 115 254 C127.77365835 246.89512494 139.77449199 239.1249435 151.28515625 230.1015625 C153.1393186 228.66625409 155.04901891 227.30065406 157 226 C154.83270961 230.75541386 151.51154148 234.18646596 148 238 C147.45859375 238.60714844 146.9171875 239.21429687 146.359375 239.83984375 C111.01655853 277.49108742 53.15842722 295.25283614 2.92919922 297.11376953 C-31.61309611 297.97313817 -72.03910721 295.53069067 -99.7109375 272.23046875 C-108.21130306 263.94768934 -112.98053733 255.40198726 -113.4375 243.5625 C-113.17309705 233.69912051 -109.40701989 226.32429389 -103 219 C-102.31292969 218.20722656 -101.62585938 217.41445313 -100.91796875 216.59765625 C-92.11286066 207.12084837 -81.23242002 201.39185551 -69.6875 195.875 C-68.72710815 195.41347534 -68.72710815 195.41347534 -67.74731445 194.94262695 C-66.19342377 194.22929302 -64.5989265 193.60568606 -63 193 C-62.34 193.33 -61.68 193.66 -61 194 C-62.25103516 194.92619141 -62.25103516 194.92619141 -63.52734375 195.87109375 C-75.23666917 204.63345886 -87.06974633 213.71171996 -90 229 C-90.60093083 237.86372974 -88.47461452 245.07314225 -82.84765625 252.02734375 C-61.42158262 274.90296148 -24.35042709 279.04327131 5.2421875 280.1875 C25.21929974 280.51432392 44.54821228 277.27109517 64 273 C62.48219368 269.05172221 60.67708889 265.83010748 58.3125 262.3125 C7.66647976 185.10172941 -19.61824744 100.7157845 -2.65429688 8.91821289 C-1.96822321 5.85827316 -1.03986277 2.95662884 0 0 Z " fill="#351B02" transform="translate(944,579)"/>
<path d="M0 0 C0.33 0 0.66 0 1 0 C1.13289765 8.63539368 0.70463579 17.14152648 0.0625 25.75 C-5.17539268 100.90080758 -1.25895792 177.20501102 23 249 C23.3417627 250.01304199 23.68352539 251.02608398 24.03564453 252.06982422 C28.58986677 265.40321644 33.94631238 278.28036114 40 291 C40.31372559 291.66064453 40.62745117 292.32128906 40.95068359 293.00195312 C49.34503363 310.52453592 58.75689936 327.65946407 68.51147461 344.45703125 C71 348.78928679 71 348.78928679 71 351 C53.52511514 355.93041394 34.46491847 355.52858234 16.50341797 354.18554688 C14.95673129 354.07091045 13.40884238 353.97032748 11.85986328 353.89257812 C10.15374848 353.80605846 8.45110436 353.6567078 6.75 353.5 C5.89921875 353.4278125 5.0484375 353.355625 4.171875 353.28125 C0.38097558 351.04489207 -0.50781465 346.98720704 -2 343 C-2.34933594 342.11006348 -2.69867187 341.22012695 -3.05859375 340.30322266 C-5.80804239 333.24113079 -8.39904935 326.11782791 -11 319 C-11.28665527 318.2251123 -11.57331055 317.45022461 -11.86865234 316.65185547 C-25.60500829 279.21526429 -33.03728792 237.40769664 -33.203125 197.60546875 C-33.21018463 196.4674733 -33.21724426 195.32947784 -33.22451782 194.15699768 C-33.34049081 169.95376549 -33.44172944 145.99933706 -30 122 C-29.90289734 121.31427917 -29.80579468 120.62855835 -29.70574951 119.92205811 C-23.84645758 78.78850421 -13.48231154 39.27644456 0 0 Z " fill="#351B02" transform="translate(919,499)"/>
<path d="M0 0 C2.59556561 2.59556561 3.32976337 5.48139565 4.5 8.875 C8.12167734 19.00530164 13.04385112 28.47007574 18 38 C18.29390625 36.78376953 18.29390625 36.78376953 18.59375 35.54296875 C21.75797649 23.82714738 27.00689114 15.12058967 37.3515625 8.5 C43.99004795 4.74014984 50.30698781 1.51286748 58 1 C57.65066406 1.45890625 57.30132813 1.9178125 56.94140625 2.390625 C56.48636719 3.00421875 56.03132813 3.6178125 55.5625 4.25 C54.88380859 5.15492188 54.88380859 5.15492188 54.19140625 6.078125 C51.35470745 10.65404569 51.34926388 15.96690793 52.4609375 21.1484375 C54.16828316 27.19444977 56.52875982 32.97428638 59.01806641 38.734375 C60.62582893 42.56788059 61 44.69063904 61 49 C52.585 49.495 52.585 49.495 44 50 C42.02 42.08 42.02 42.08 40 34 C40.4640625 35.98 40.4640625 35.98 40.9375 38 C41.90373765 42.32408482 42.51968977 46.59715622 43 51 C42.48050781 51.21914063 41.96101563 51.43828125 41.42578125 51.6640625 C34.9220031 54.62141818 31.96122596 58.05816105 28 64 C28 64.99 28 65.98 28 67 C28.31710937 66.40832031 28.63421875 65.81664062 28.9609375 65.20703125 C32.83546385 58.64602392 36.71971527 55.32811273 44 53 C49.3146698 51.88248997 54.66097042 51.33152924 60.06054688 50.79541016 C71.62557559 49.8149843 71.62557559 49.8149843 82 45 C84.40521237 42.06057006 84.40521237 42.06057006 86 39 C86.66 38.01 87.32 37.02 88 36 C91.86859879 48.03735322 91.05193548 61.21449504 85.74609375 72.71875 C81.33774833 80.69461201 75.36560978 86.56965156 66.95922852 90.18359375 C60.33287298 92.01170471 53.2070659 91.56741213 46.375 91.5625 C44.01066353 91.56612628 41.64705372 91.57582535 39.28286743 91.60325623 C37.82151361 91.61984615 36.35992068 91.62307907 34.89852905 91.61024475 C29.83947336 91.66213114 26.4539578 92.80638408 22 95 C22 95.66 22 96.32 22 97 C23.30904297 96.25943359 23.30904297 96.25943359 24.64453125 95.50390625 C30.3932964 93.0446882 36.55999842 93.76630465 42.6875 93.9375 C56.93714696 94.2962217 71.06763302 94.35697924 82 84 C84.0958754 81.39891359 86.07310782 78.72810852 88 76 C88.33 76.66 88.66 77.32 89 78 C82.63197206 88.28681437 76.09971144 95.71295106 64.27392578 99.56176758 C61.23434792 100.14755695 58.37940195 100.03650995 55.28515625 99.95703125 C53.94467691 99.93460377 52.60418094 99.91315276 51.26367188 99.89257812 C49.17718074 99.85587921 47.09156896 99.81333843 45.00561523 99.75317383 C35.22523698 99.48497761 23.72775269 99.18811936 15.83496094 105.81884766 C14.04468508 107.78157154 12.52996188 109.8288041 11 112 C9.73855003 113.61155578 8.46720803 115.21540407 7.1875 116.8125 C6.18783203 118.06933594 6.18783203 118.06933594 5.16796875 119.3515625 C-0.9932646 126.87825838 -7.51178298 133.79818554 -15 140 C-15.84691406 140.73476563 -16.69382812 141.46953125 -17.56640625 142.2265625 C-60.42686128 178.96409538 -115.17527911 200.51626349 -171.75 200.375 C-172.6487384 200.3737915 -173.54747681 200.37258301 -174.47344971 200.37133789 C-215.75476551 200.22138029 -256.6799304 188.75476829 -292 167 C-288.01322167 165.67107389 -285.49894393 166.95664438 -281.7109375 168.31640625 C-280.20902649 168.83637572 -278.70698663 169.35597314 -277.20483398 169.87524414 C-276.41664276 170.15111359 -275.62845154 170.42698303 -274.81637573 170.71121216 C-209.36966542 193.53194722 -142.85799868 193.609041 -79.41796875 163.25 C-64.23410737 155.65281296 -49.69707879 147.02945025 -36 137 C-35.17097168 136.40421143 -35.17097168 136.40421143 -34.32519531 135.79638672 C-16.35648179 122.83931858 6.14330032 104.79069015 11.578125 82.35546875 C12.55046436 74.62176962 12.2056465 66.77648448 12 59 C11.34 59 10.68 59 10 59 C10.0825 60.216875 10.165 61.43375 10.25 62.6875 C10.19839342 73.62809417 5.72695845 82.62909384 -1 91 C-9.33930616 89.61731711 -14.86962375 84.80386763 -20.23828125 78.46484375 C-26.68952638 69.43882229 -27.98912132 58.46405242 -26.7265625 47.66015625 C-23.59061325 29.40656488 -13.21604163 12.75744082 0 0 Z M39 21 C40 23 40 23 40 23 Z M26 81 C24.88364895 83.70218446 24.88364895 83.70218446 25 86 C25.46148438 85.63648438 25.92296875 85.27296875 26.3984375 84.8984375 C39.36290224 74.90606349 52.18871041 70.76052293 68 67 C68 66.67 68 66.34 68 66 C54.65278413 65.2947655 35.2960552 71.27097785 26 81 Z " fill="#351B02" transform="translate(1136,703)"/>
<path d="M0 0 C9.68456376 7.49772678 9.68456376 7.49772678 12 13 C6 19.66666667 0 26.33333333 -6 33 C-6.680625 32.29875 -7.36125 31.5975 -8.0625 30.875 C-9.03809486 29.91303077 -10.01757704 28.95499491 -11 28 C-11.50789062 27.49597656 -12.01578125 26.99195313 -12.5390625 26.47265625 C-18.55810388 20.86724568 -25.23348892 17.85027589 -33.5 17.5 C-41.23702914 17.82784022 -48.59675261 20.60490502 -54.33203125 25.890625 C-63.30997416 37.24446381 -65.15350943 49.94415753 -64 64 C-63.17307461 68.00704418 -61.89669331 71.38387443 -60 75 C-59.57589844 75.80953125 -59.15179688 76.6190625 -58.71484375 77.453125 C-54.63085639 84.32423465 -49.20543875 88.03149675 -42.0625 91.375 C-32.72042367 93.28154619 -24.98285954 91.80114008 -16.921875 86.6796875 C-11.06910006 82.17944458 -9.73032539 76.92130156 -8 70 C-16.25 70 -24.5 70 -33 70 C-38 55 -38 55 -38 47 C-18.2 47 1.6 47 22 47 C22 70.1 22 93.2 22 117 C14.125 115.875 14.125 115.875 10.0625 114.4375 C9.29035156 114.16808594 8.51820313 113.89867187 7.72265625 113.62109375 C7.15417969 113.41613281 6.58570313 113.21117187 6 113 C5.67 111.02 5.34 109.04 5 107 C4.00033203 107.68835937 4.00033203 107.68835937 2.98046875 108.390625 C-11.5960301 118.09469976 -28.4693268 122.37191084 -45.921875 119.3125 C-62.11477544 115.83696937 -75.72424531 107.75736645 -85.18359375 93.921875 C-95.30897124 77.63417099 -99.53771703 59.9634672 -95.8125 40.9375 C-91.74606995 23.87740743 -83.62824462 9.37959819 -68.75 -0.1875 C-47.788477 -12.66287009 -20.89524513 -13.0314432 0 0 Z M6 104 C7 106 7 106 7 106 Z " fill="#351B02" transform="translate(567,1523)"/>
<path d="M0 0 C3.542539 2.71869272 6.54706127 5.2262481 9 9 C8.6450967 12.4125317 7.34550429 13.96783011 4.875 16.25 C1.5729341 19.39611617 -1.39598103 22.70880791 -4.32421875 26.203125 C-6.07157236 28.07674426 -7.9105862 29.52511967 -10 31 C-10.556875 30.32453125 -11.11375 29.6490625 -11.6875 28.953125 C-17.91435717 21.67443385 -23.60321715 16.72077277 -33.4453125 15.76171875 C-40.82649199 15.55728375 -47.79510634 16.51566324 -53.6640625 21.37890625 C-54.80937357 22.55435708 -55.90966941 23.77337809 -57 25 C-57.66 25 -58.32 25 -59 25 C-59.2475 25.66 -59.495 26.32 -59.75 27 C-61.00801397 30.01923353 -62.45707486 32.86125696 -64 35.7421875 C-68.8792856 46.75869952 -68.19501164 58.86695301 -64.25390625 70.05859375 C-60.6790225 78.44453602 -56.14528963 83.77704668 -48 88 C-40.81184824 90.82391676 -34.11308919 91.01102641 -26.875 88.375 C-20.94198654 85.74528175 -15.87792757 82.49657505 -13.125 76.4375 C-11.85389 72.78342961 -11.85389 72.78342961 -11 68 C-19.25 68 -27.5 68 -36 68 C-38.3973453 60.0346269 -40.07293746 53.3435629 -41 45 C-21.2 45 -1.4 45 19 45 C19 68.1 19 91.2 19 115 C15.15095195 114.35849199 11.83719316 113.78146155 8.1875 112.625 C7.41792969 112.39039063 6.64835937 112.15578125 5.85546875 111.9140625 C5.24316406 111.61242188 4.63085938 111.31078125 4 111 C3 108 3 108 3 104 C2.42894531 104.44730469 1.85789062 104.89460938 1.26953125 105.35546875 C-12.85584257 115.88774271 -29.87605271 119.83644705 -47.3046875 117.5703125 C-61.16398157 115.0700835 -72.21454354 109.05828517 -82 99 C-82.54914063 98.48308594 -83.09828125 97.96617188 -83.6640625 97.43359375 C-87.4154804 93.59190109 -89.75845102 88.98703247 -92.1875 84.25 C-92.52088379 83.60667725 -92.85426758 82.96335449 -93.19775391 82.30053711 C-97.8701011 72.80182222 -99.52276259 63.59839501 -99.375 53.0625 C-99.36412354 52.00562988 -99.35324707 50.94875977 -99.34204102 49.85986328 C-99.01351603 33.81048807 -93.65958194 17.62881788 -82 6 C-81.34 6 -80.68 6 -80 6 C-80 5.34 -80 4.68 -80 4 C-59.17785177 -16.88681328 -23.01164142 -15.85091916 0 0 Z " fill="#3B6A00" transform="translate(1109,1525)"/>
<path d="M0 0 C66.29192547 0 66.29192547 0 78.03515625 10.88671875 C79.84611832 12.84378816 81.44489084 14.83528805 83 17 C83.41121094 17.56976562 83.82242188 18.13953125 84.24609375 18.7265625 C89.32157443 27.16710546 89.73950257 38.84422362 88.125 48.3125 C84.8687721 60.74279608 77.60085911 66.61853149 67 73 C67.60884033 73.91064209 68.21768066 74.82128418 68.8449707 75.75952148 C89.20274815 106.21638746 89.20274815 106.21638746 95.875 116.5 C96.31368408 117.17345459 96.75236816 117.84690918 97.2043457 118.54077148 C100 122.87541498 100 122.87541498 100 124 C73.51227263 128.468752 73.51227263 128.468752 65.28601074 122.82385254 C58.22756506 116.33034889 53.98339761 107.03180077 49.80664062 98.54785156 C47.50011751 94.01833887 44.76631648 89.93628257 41.8125 85.8125 C38 80.30707116 38 80.30707116 38 78 C35.36 78 32.72 78 30 78 C30 93.18 30 108.36 30 124 C20.1 124 10.2 124 0 124 C0 83.08 0 42.16 0 0 Z M30 23 C30 33.56 30 44.12 30 55 C39.66053888 55 47.07514239 54.70589748 55 49 C57.98719005 44.66375637 58.55794988 41.2075322 58 36 C56.25017066 31.30308966 54.32084759 28.55723633 50 26 C43.05766274 23.6692153 37.42360454 23 30 23 Z " fill="#351B02" transform="translate(603,1516)"/>
<path d="M0 0 C4.37238109 2.91492072 8.30946358 5.83578447 12.25 9.25 C16.04014056 12.49540159 19.83930473 15.71206865 23.75 18.8125 C28.22999254 22.36609667 32.65092706 25.98715214 37.0625 29.625 C38.15123413 30.5224292 38.15123413 30.5224292 39.26196289 31.43798828 C42.97205171 34.49784698 46.67884761 37.56163815 50.3828125 40.62890625 C51.10460693 41.22558105 51.82640137 41.82225586 52.57006836 42.43701172 C53.91062805 43.54525719 55.25012019 44.65479636 56.58813477 45.76611328 C63.29658786 51.30895243 70.14923536 56.61725635 77 62 C77 41.54 77 21.08 77 0 C86.57 0 96.14 0 106 0 C106 40.92 106 81.84 106 124 C102.41929644 122.20964822 99.97927753 120.47754103 96.9375 117.9375 C95.96683594 117.13183594 94.99617187 116.32617188 93.99609375 115.49609375 C93.00738281 114.67238281 92.01867187 113.84867188 91 113 C89.1682747 111.49803678 87.3349744 109.99799201 85.5 108.5 C52.5 81.5 52.5 81.5 49.76953125 79.265625 C47.87155449 77.71297828 45.97309243 76.16092466 44.07421875 74.609375 C43.12160156 73.83078125 42.16898438 73.0521875 41.1875 72.25 C40.33542969 71.55390625 39.48335937 70.8578125 38.60546875 70.140625 C35.72542408 67.77441138 32.86347969 65.38623307 30 63 C29.67 83.13 29.34 103.26 29 124 C19.43 124 9.86 124 0 124 C0 83.08 0 42.16 0 0 Z " fill="#351B02" transform="translate(887,1516)"/>
<path d="M0 0 C65.15948276 0 65.15948276 0 77.96484375 11.8125 C85.80431549 20.03317227 88.3782297 30.1474018 88.2109375 41.2890625 C87.45784439 50.96770352 83.99458583 59.46498543 76.75 66.04296875 C73.30672213 68.78966245 69.95476366 71.06712349 66 73 C66.60884033 73.91064209 67.21768066 74.82128418 67.8449707 75.75952148 C88.20274815 106.21638746 88.20274815 106.21638746 94.875 116.5 C95.31368408 117.17345459 95.75236816 117.84690918 96.2043457 118.54077148 C99 122.87541498 99 122.87541498 99 124 C94.58965677 124.27392246 90.18391784 124.47235258 85.76757812 124.60424805 C84.26930486 124.65925571 82.77161395 124.73410328 81.27539062 124.82983398 C68.99658046 125.59521315 68.99658046 125.59521315 64.52856445 122.02539062 C62.39278232 119.13017762 60.71204151 116.16389505 59 113 C57.83838397 111.18695466 56.63657875 109.40539857 55.42904663 107.62266541 C53.73651726 105.11979198 52.09179326 102.58688574 50.44360352 100.0546875 C49.17435967 98.10481318 47.90100041 96.15767592 46.62695312 94.2109375 C45.80705588 92.95588317 44.98738598 91.70068028 44.16796875 90.4453125 C43.79294724 89.87128693 43.41792572 89.29726135 43.03153992 88.70584106 C41.41641889 86.22299213 39.94380483 83.87337312 38.73950195 81.15966797 C36.6157318 78.01085289 36.6157318 78.01085289 29 78 C29 93.18 29 108.36 29 124 C19.43 124 9.86 124 0 124 C0 83.08 0 42.16 0 0 Z M29 23 C29 33.56 29 44.12 29 55 C39.07686443 55 47.10281891 54.5151744 55 48 C57.60072965 43.75482273 57.4974973 39.84005852 57 35 C56.01358763 31.33618263 54.99081565 29.6552168 51.8203125 27.55859375 C44.01745591 23.39627967 37.89147764 23 29 23 Z " fill="#3B6A00" transform="translate(1143,1516)"/>
<path d="M0 0 C1.12591553 0.00523682 2.25183105 0.01047363 3.41186523 0.01586914 C4.62680664 0.0190918 5.84174805 0.02231445 7.09350586 0.02563477 C8.37290039 0.03401367 9.65229492 0.04239258 10.97045898 0.05102539 C12.2537207 0.05553711 13.53698242 0.06004883 14.85913086 0.06469727 C18.04211921 0.07652994 21.22501661 0.09301471 24.40795898 0.11352539 C27.92429232 6.84338673 30.78266969 13.75737883 33.59936523 20.80493164 C34.10242601 22.05638742 34.60580107 23.30771691 35.10946655 24.55892944 C36.45529197 27.90451688 37.79711915 31.25169383 39.13810349 34.59922409 C40.53323925 38.08021241 41.93170063 41.55986373 43.33007812 45.03955078 C43.89561804 46.44688278 44.46115453 47.85421616 45.02668762 49.2615509 C45.30723307 49.95967203 45.58777851 50.65779316 45.87682533 51.37706947 C46.73001773 53.50068433 47.58272712 55.62449262 48.43534851 57.74833679 C52.00832571 66.64626919 55.6014015 75.5357277 59.21264648 84.41821289 C59.65513229 85.50764694 60.0976181 86.59708099 60.55351257 87.7195282 C63.05520916 93.87918902 63.05520916 93.87918902 65.56350708 100.03616333 C66.69060832 102.79895543 67.81338069 105.56347068 68.93530273 108.32836914 C69.26122406 109.12350922 69.58714539 109.91864929 69.92294312 110.73788452 C70.2234256 111.48051544 70.52390808 112.22314636 70.83349609 112.98828125 C71.09118271 113.62068222 71.34886932 114.25308319 71.61436462 114.90464783 C72.69895791 117.92348705 73.52671917 121.02918604 74.40795898 124.11352539 C64.17795898 124.11352539 53.94795898 124.11352539 43.40795898 124.11352539 C41.04457409 118.79590938 38.7430007 113.58812441 36.65795898 108.17602539 C36.22999023 107.07387695 35.80202148 105.97172852 35.36108398 104.83618164 C34.40795898 102.11352539 34.40795898 102.11352539 34.40795898 100.11352539 C18.89795898 100.11352539 3.38795898 100.11352539 -12.59204102 100.11352539 C-13.58204102 103.74352539 -14.57204102 107.37352539 -15.59204102 111.11352539 C-17.24204102 115.40352539 -18.89204102 119.69352539 -20.59204102 124.11352539 C-31.15204102 124.11352539 -41.71204102 124.11352539 -52.59204102 124.11352539 C-45.7358342 106.15797832 -38.69014614 88.29958709 -31.46704102 70.48852539 C-29.70250213 66.13015103 -27.93900364 61.7713567 -26.17611313 57.41231537 C-25.6733438 56.16920274 -25.17048827 54.92612497 -24.66754532 53.68308258 C-21.28268745 45.31670743 -17.9173226 36.94285907 -14.57641602 28.55883789 C-14.19820709 27.6101181 -13.81999817 26.66139832 -13.43032837 25.68392944 C-11.68358631 21.30039396 -9.94019863 16.91555762 -8.20092773 12.52905273 C-7.59439353 11.00509755 -6.98779013 9.48116991 -6.38110352 7.95727539 C-6.10933289 7.26852325 -5.83756226 6.57977112 -5.55755615 5.87014771 C-3.27317574 0.14335751 -3.27317574 0.14335751 0 0 Z M10.40795898 40.11352539 C8.69251028 44.4709628 6.9837025 48.83092318 5.28100586 53.19335938 C4.70079589 54.67714576 4.11877523 56.16022543 3.53491211 57.64257812 C2.69615658 59.77298864 1.86393842 61.90585302 1.03295898 64.03930664 C0.77047363 64.70190994 0.50798828 65.36451324 0.23754883 66.04719543 C-0.86687463 68.89924773 -1.59204102 71.02462453 -1.59204102 74.11352539 C6.98795898 74.11352539 15.56795898 74.11352539 24.40795898 74.11352539 C22.87843671 70.07487043 21.34863256 66.03632453 19.81811523 61.99804688 C19.29809355 60.62571352 18.77823459 59.2533185 18.25854492 57.88085938 C17.50930402 55.90226055 16.75946818 53.92388804 16.00952148 51.94555664 C15.33397217 50.16242065 15.33397217 50.16242065 14.64477539 48.34326172 C13.59020373 45.58942663 12.51242829 42.84765042 11.40795898 40.11352539 C11.07795898 40.11352539 10.74795898 40.11352539 10.40795898 40.11352539 Z " fill="#3B6A00" transform="translate(1295.592041015625,1515.886474609375)"/>
<path d="M0 0 C7.50893947 6.28707062 12.0518753 12.84934179 13.390625 22.6484375 C13.8246483 31.98651448 10.48142276 40.12784982 4.390625 47.1484375 C-7.93084531 58.96967718 -31.76352416 59.47547754 -47.96386719 62.57714844 C-51.52699621 63.26001606 -55.08674769 63.95906739 -58.64599037 64.66186905 C-61.43452138 65.20948353 -64.22523952 65.74525131 -67.01664352 66.27800751 C-68.95544479 66.65098247 -70.8919176 67.0359991 -72.82827759 67.42144775 C-85.68649586 69.84007121 -97.87425298 71.1872218 -109.37890625 64.05078125 C-115.28081346 59.64302777 -118.67312716 53.10522177 -120.609375 46.1484375 C-121.70875228 35.24414892 -120.23494907 27.48427402 -113.484375 18.8984375 C-106.23881338 11.30993079 -96.91512145 9.18779061 -86.90234375 7.39453125 C-85.70112381 7.16693619 -84.49990387 6.93934113 -83.26228333 6.70484924 C-79.44295623 5.98448675 -75.62018782 5.28480183 -71.796875 4.5859375 C-69.27382979 4.11401148 -66.75104051 3.64071503 -64.22851562 3.16601562 C-59.3161946 2.24308548 -54.40189441 1.3320157 -49.48583984 0.42919922 C-45.13486225 -0.37331426 -40.7924485 -1.2061027 -36.45556641 -2.08154297 C-35.51175613 -2.26990219 -34.56794586 -2.45826141 -33.59553528 -2.65232849 C-31.88517175 -2.99567627 -30.17622086 -3.34619498 -28.46928406 -3.70619202 C-18.44963783 -5.70314937 -8.62488765 -6.12005501 0 0 Z " fill="#351B02" transform="translate(717.609375,1235.8515625)"/>
<path d="M0 0 C11.694375 -0.020625 23.38875 -0.04125 35.4375 -0.0625 C40.98389282 -0.07615601 40.98389282 -0.07615601 46.64233398 -0.09008789 C51.14465332 -0.09460449 51.14465332 -0.09460449 53.24989319 -0.09544373 C54.72568564 -0.09698306 56.2014768 -0.10050776 57.67726135 -0.10557556 C59.90782875 -0.1128548 62.13831905 -0.11390736 64.36889648 -0.11352539 C65.62798325 -0.115746 66.88707001 -0.11796661 68.18431091 -0.12025452 C71 0 71 0 72 1 C72.08726223 2.78071246 72.10699041 4.5648314 72.09765625 6.34765625 C72.09515869 7.31968994 72.09266113 8.29172363 72.09008789 9.29321289 C72.08098389 10.53707764 72.07187988 11.78094238 72.0625 13.0625 C72.041875 17.001875 72.02125 20.94125 72 25 C57.81 25 43.62 25 29 25 C29 32.92 29 40.84 29 49 C42.53 49 56.06 49 70 49 C70 57.58 70 66.16 70 75 C56.47 75 42.94 75 29 75 C29 82.92 29 90.84 29 99 C32.02027344 98.98839844 35.04054688 98.97679687 38.15234375 98.96484375 C41.0646962 98.95705391 43.9770475 98.95097674 46.8894043 98.94506836 C48.91968298 98.94002722 50.94995802 98.93319443 52.98022461 98.92456055 C55.89177347 98.91248533 58.8032745 98.90676966 61.71484375 98.90234375 C62.6283812 98.89718246 63.54191864 98.89202118 64.48313904 98.88670349 C66.65575427 98.88650832 68.82827296 98.93788195 71 99 C76.89726867 104.89726867 72 115.66000266 72 124 C48.24 124 24.48 124 0 124 C0 83.08 0 42.16 0 0 Z " fill="#351B02" transform="translate(797,1516)"/>
<path d="M0 0 C11.694375 -0.020625 23.38875 -0.04125 35.4375 -0.0625 C40.98389282 -0.07615601 40.98389282 -0.07615601 46.64233398 -0.09008789 C51.14465332 -0.09460449 51.14465332 -0.09460449 53.24989319 -0.09544373 C54.72568564 -0.09698306 56.2014768 -0.10050776 57.67726135 -0.10557556 C59.90782875 -0.1128548 62.13831905 -0.11390736 64.36889648 -0.11352539 C65.62798325 -0.115746 66.88707001 -0.11796661 68.18431091 -0.12025452 C71 0 71 0 72 1 C72.08726223 2.78071246 72.10699041 4.5648314 72.09765625 6.34765625 C72.09515869 7.31968994 72.09266113 8.29172363 72.09008789 9.29321289 C72.08098389 10.53707764 72.07187988 11.78094238 72.0625 13.0625 C72.041875 17.001875 72.02125 20.94125 72 25 C57.81 25 43.62 25 29 25 C29 32.92 29 40.84 29 49 C42.53 49 56.06 49 70 49 C70 57.58 70 66.16 70 75 C56.47 75 42.94 75 29 75 C29 82.92 29 90.84 29 99 C32.02027344 98.98839844 35.04054688 98.97679687 38.15234375 98.96484375 C41.0646962 98.95705391 43.9770475 98.95097674 46.8894043 98.94506836 C48.91968298 98.94002722 50.94995802 98.93319443 52.98022461 98.92456055 C55.89177347 98.91248533 58.8032745 98.90676966 61.71484375 98.90234375 C62.6283812 98.89718246 63.54191864 98.89202118 64.48313904 98.88670349 C66.65575427 98.88650832 68.82827296 98.93788195 71 99 C76.89726867 104.89726867 72 115.66000266 72 124 C48.24 124 24.48 124 0 124 C0 83.08 0 42.16 0 0 Z " fill="#351B02" transform="translate(708,1516)"/>
<path d="M0 0 C0.8765625 0.00942627 1.753125 0.01885254 2.65625 0.02856445 C15.79064322 0.3329157 28.03822053 4.41428832 39.1875 11.375 C38.60334531 14.98893308 37.63269602 17.79976184 35.90234375 21.01953125 C35.45439453 21.86064453 35.00644531 22.70175781 34.54492188 23.56835938 C34.07634766 24.43267578 33.60777344 25.29699219 33.125 26.1875 C32.65255859 27.07115234 32.18011719 27.95480469 31.69335938 28.86523438 C30.53046716 31.03831578 29.36171625 33.20802284 28.1875 35.375 C27.44628906 34.92382812 26.70507812 34.47265625 25.94140625 34.0078125 C23.69467286 32.67570675 21.45498294 31.4265719 19.125 30.25 C18.47402344 29.91742187 17.82304688 29.58484375 17.15234375 29.2421875 C11.42956324 26.71642751 5.33908361 26.88155746 -0.8125 27.375 C-4.3172765 28.70485569 -4.3172765 28.70485569 -6.8125 30.375 C-7.4725 30.375 -8.1325 30.375 -8.8125 30.375 C-10.65991105 34.17849334 -11.0623691 36.32085606 -9.8125 40.375 C-5.09373586 45.38374405 2.41237409 47.9568275 8.5625 50.8125 C21.80267753 56.96465665 36.04323609 63.90214179 41.546875 78.38671875 C44.34171737 87.06095514 43.64044498 95.01523847 40.1875 103.375 C33.66056799 115.47949209 23.99504701 123.09736486 10.875 127.1875 C9.31732277 127.60190552 7.75525643 128.00052698 6.1875 128.375 C5.23875 128.601875 4.29 128.82875 3.3125 129.0625 C-16.32583001 131.026333 -34.76944586 124.57015305 -50.8125 113.375 C-49.75411453 108.05483886 -46.73502795 103.7361215 -44 99.125 C-43.46568359 98.18914062 -42.93136719 97.25328125 -42.38085938 96.2890625 C-41.85685547 95.40476562 -41.33285156 94.52046875 -40.79296875 93.609375 C-40.31754639 92.79694336 -39.84212402 91.98451172 -39.35229492 91.14746094 C-38.59009644 90.27009277 -38.59009644 90.27009277 -37.8125 89.375 C-33.32088152 89.375 -30.58556404 90.73749127 -26.6875 92.6875 C-16.53453008 97.55160016 -7.3301477 100.91471175 4.1875 99.375 C7.02581447 98.21872243 7.02581447 98.21872243 9.1875 96.375 C10.32737431 92.02922919 10.53838175 89.60308611 9.3125 85.3125 C4.09458718 78.09950287 -4.05569445 73.89660534 -11.8125 69.875 C-20.29879502 65.47518243 -28.46048828 60.60057849 -34.75 53.25 C-35.29527344 52.62867188 -35.84054687 52.00734375 -36.40234375 51.3671875 C-41.08084266 44.7576738 -40.54299169 37.10283313 -39.8125 29.375 C-37.28521529 19.34814484 -31.45362803 11.25895945 -22.875 5.5 C-15.43271616 1.39916929 -8.4617691 -0.14184942 0 0 Z " fill="#3B6A00" transform="translate(1537.8125,1513.625)"/>
<path d="M0 0 C-0.58415469 3.61393308 -1.55480398 6.42476184 -3.28515625 9.64453125 C-3.73310547 10.48564453 -4.18105469 11.32675781 -4.64257812 12.19335938 C-5.11115234 13.05767578 -5.57972656 13.92199219 -6.0625 14.8125 C-6.53494141 15.69615234 -7.00738281 16.57980469 -7.49414062 17.49023438 C-8.65703284 19.66331578 -9.82578375 21.83302284 -11 24 C-11.65226562 23.59007812 -12.30453125 23.18015625 -12.9765625 22.7578125 C-21.85298279 17.28532919 -28.46778329 15.0681953 -39 16 C-42.92570342 17.00553105 -46.57850038 18.63680608 -49 22 C-50.00478037 23.8522367 -50.00478037 23.8522367 -50 26 C-47.84597478 30.93496822 -44.57022418 32.61949346 -39.875 34.75 C-38.43277146 35.43968937 -36.99139318 36.13115897 -35.55078125 36.82421875 C-34.80393066 37.17919434 -34.05708008 37.53416992 -33.28759766 37.89990234 C-3.42624434 52.26012199 -3.42624434 52.26012199 3.4375 68.375 C5.154437 79.4397051 3.78741572 87.64691556 -1.9375 97.25 C-2.618125 98.1575 -3.29875 99.065 -4 100 C-4.680625 100.969375 -5.36125 101.93875 -6.0625 102.9375 C-13.48712916 111.56184058 -24.75498761 115.47473423 -35.5625 117.75 C-36.696875 117.8325 -37.83125 117.915 -39 118 C-40.12341797 118.09474609 -40.12341797 118.09474609 -41.26953125 118.19140625 C-58.62156988 118.99787281 -75.97048815 111.77483874 -90 102 C-88.45077472 97.77556613 -86.37340175 93.94496324 -84.125 90.0625 C-83.78597656 89.46759766 -83.44695312 88.87269531 -83.09765625 88.25976562 C-80.87748596 84.39768233 -78.50723986 80.68215719 -76 77 C-72.1790169 78.47612841 -68.50641836 80.16927842 -64.8125 81.9375 C-54.94080553 86.46895122 -46.04356284 89.47633474 -35 88 C-31.2916346 86.2269638 -31.2916346 86.2269638 -29 83 C-28.62072773 77.97464247 -28.84894881 74.9913315 -32 71 C-37.71973641 65.55927513 -44.5772082 61.9037094 -51.44140625 58.0859375 C-72.81333653 46.18302405 -72.81333653 46.18302405 -78.375 35.3125 C-80.53831576 23.84692648 -78.91180809 13.89895378 -72.375 4.25 C-68.50334716 -0.75000339 -64.62130708 -4.12934893 -59 -7 C-58.22527344 -7.41121094 -57.45054688 -7.82242187 -56.65234375 -8.24609375 C-37.95464099 -16.59792698 -16.76970735 -9.19879171 0 0 Z " fill="#3B6A00" transform="translate(1471,1525)"/>
<path d="M0 0 C1.134375 0.00902344 2.26875 0.01804687 3.4375 0.02734375 C4.283125 0.03894531 5.12875 0.05054688 6 0.0625 C5.16744103 1.94719394 4.30769131 3.81988313 3.4375 5.6875 C2.96183594 6.73164062 2.48617188 7.77578125 1.99609375 8.8515625 C-2.71332327 16.42718049 -10.76383659 20.69117977 -18.09692383 25.46536255 C-29.44234187 32.86469216 -40.42611503 40.58822146 -51 49.0625 C-52.00675781 49.85785156 -53.01351563 50.65320312 -54.05078125 51.47265625 C-67.53149945 62.2839253 -80.6667481 73.70317298 -89 89.0625 C-88.00742188 88.55460937 -87.01484375 88.04671875 -85.9921875 87.5234375 C-77.12218528 83.01701045 -68.21096098 78.83594712 -59 75.0625 C-58.17242188 74.70929688 -57.34484375 74.35609375 -56.4921875 73.9921875 C-52.84667331 72.49900641 -50.75378114 71.87407584 -47 73.0625 C-50.16239582 76.25426092 -53.33068759 79.4401081 -56.5 82.625 C-57.386875 83.52025391 -58.27375 84.41550781 -59.1875 85.33789062 C-64.29365271 90.46281595 -69.48872502 95.37753618 -75 100.0625 C-75.97582031 100.91972656 -76.95164062 101.77695313 -77.95703125 102.66015625 C-97.4207317 119.46124378 -118.7673486 133.29969682 -141.08789062 145.9609375 C-142.71816961 146.90013806 -144.32304336 147.88321139 -145.921875 148.875 C-148 150.0625 -148 150.0625 -150 150.0625 C-148.64818477 146.53717792 -147.10098117 143.21370226 -145.34765625 139.87109375 C-132.89387158 115.78905213 -121.78200268 90.32450576 -115.48828125 63.8671875 C-115.23731689 62.82667236 -114.98635254 61.78615723 -114.7277832 60.71411133 C-114.25670562 58.71459955 -113.80957433 56.70923052 -113.39135742 54.69799805 C-111.84166099 48.03731193 -109.65938432 44.85373093 -104 41.0625 C-103.42894531 40.6512085 -102.85789062 40.23991699 -102.26953125 39.81616211 C-100.53677385 38.58722276 -98.77786266 37.41261414 -97 36.25 C-96.02571045 35.60998047 -96.02571045 35.60998047 -95.03173828 34.95703125 C-93.02713337 33.64932277 -91.01524088 32.35374693 -89 31.0625 C-88.40155273 30.67658691 -87.80310547 30.29067383 -87.18652344 29.89306641 C-61.9981281 13.78453453 -30.44989204 -0.31718638 0 0 Z " fill="#3B6A00" transform="translate(1492,1070.9375)"/>
<path d="M0 0 C2.75 2.4375 2.75 2.4375 5 5 C5.47953125 5.50015625 5.9590625 6.0003125 6.453125 6.515625 C14.96029028 15.71023798 18.53992337 26.72058475 18.24609375 39.11328125 C17.19056394 51.49481348 12.37280465 62.72930177 3.1875 71.21875 C-7.78791385 80.15587271 -19.94241452 83.28111001 -34 82 C-46.91827016 79.66659518 -57.09710992 73.8152496 -65.0859375 63.23828125 C-72.14045367 52.09095506 -74.3861082 39.96016306 -72 27 C-69.04715049 15.53868205 -62.49583423 4.48716145 -52.16796875 -1.6953125 C-35.20751138 -10.52755068 -15.96281334 -11.29762493 0 0 Z " fill="#351B02" transform="translate(1036,582)"/>
<path d="M0 0 C5.87924091 5.39652429 9.50508525 12.07568164 10.21875 20.0546875 C10.46531941 29.89150934 8.38465526 37.65731215 1.5390625 44.9296875 C-6.50449284 52.46926067 -16.89084507 53.93055258 -27.39453125 55.65234375 C-28.55903809 55.84786331 -29.72354492 56.04338287 -30.92333984 56.24482727 C-33.37342685 56.65419105 -35.82412588 57.05990682 -38.27539062 57.4621582 C-42.00971817 58.0765106 -45.741193 58.70640089 -49.47265625 59.33789062 C-51.86312583 59.735311 -54.25374616 60.13182587 -56.64453125 60.52734375 C-57.75103027 60.7147966 -58.8575293 60.90224945 -59.99755859 61.09538269 C-70.70088987 62.831137 -80.82600039 63.71360539 -90.4765625 57.9140625 C-97.60111569 52.73901391 -101.61599914 46.83972261 -104.01953125 38.390625 C-105.11601862 28.34374072 -103.56423073 19.83137163 -97.51953125 11.640625 C-90.17019174 4.02422532 -79.70571436 1.40450808 -69.59765625 -0.1640625 C-68.45399597 -0.35533722 -67.31033569 -0.54661194 -66.13201904 -0.74368286 C-63.73016743 -1.14089406 -61.32673203 -1.52863631 -58.921875 -1.90722656 C-55.28849505 -2.48137831 -51.66210395 -3.0897875 -48.03515625 -3.703125 C-12.09405351 -9.6378144 -12.09405351 -9.6378144 0 0 Z " fill="#351B02" transform="translate(693.01953125,1179.609375)"/>
<path d="M0 0 C6.81808312 5.69436201 11.08263311 11.85944614 12.140625 20.83203125 C12.39698088 30.89399936 10.71419391 38.51764646 4.09375 46.3203125 C-3.28476201 53.23335763 -12.79501561 55.18395154 -22.46484375 56.74609375 C-23.61749222 56.94019836 -24.77014069 57.13430298 -25.9577179 57.33428955 C-28.3864338 57.74004205 -30.81616818 58.13973994 -33.24682617 58.53369141 C-36.92747102 59.13254476 -40.6032818 59.7562386 -44.27929688 60.3828125 C-78.23307217 66.05739321 -78.23307217 66.05739321 -90.48046875 57.9140625 C-97.11399244 52.68877289 -100.94152283 45.70582529 -102.265625 37.38671875 C-102.94108234 27.25485858 -99.65945363 19.23369025 -93.265625 11.38671875 C-84.03780998 1.14228004 -61.9049922 0.77529462 -49.10009766 -1.33300781 C-45.87341007 -1.86612552 -42.64964167 -2.41491695 -39.42578125 -2.96484375 C-37.34390687 -3.3121396 -35.26188055 -3.65852613 -33.1796875 -4.00390625 C-32.23155182 -4.16634827 -31.28341614 -4.32879028 -30.30654907 -4.49615479 C-19.19917512 -6.29631242 -9.52422065 -6.78190194 0 0 Z " fill="#351B02" transform="translate(743.265625,1297.61328125)"/>
<path d="M0 0 C3.95247792 14.38701963 5.38750318 28.34047962 5.3125 43.1875 C5.30926727 44.34261078 5.30926727 44.34261078 5.30596924 45.52105713 C5.25339266 57.2444185 4.79792422 68.56500538 2 80 C1.80664062 80.8146875 1.61328125 81.629375 1.4140625 82.46875 C-5.15279143 109.3847439 -17.33832359 132.76197166 -35 154 C-35.44891602 154.56783203 -35.89783203 155.13566406 -36.36035156 155.72070312 C-37.52962916 157.18336932 -38.76035755 158.59647262 -40 160 C-40.66 160 -41.32 160 -42 160 C-41.74605469 158.90945313 -41.49210938 157.81890625 -41.23046875 156.6953125 C-40.29566416 152.63355921 -39.40545576 148.56323488 -38.53466797 144.48730469 C-38.20304383 142.94457101 -37.86479142 141.40322673 -37.51611328 139.86425781 C-32.92893249 119.33400895 -32.95828391 96.44312279 -38 76 C-38.18804199 75.21496094 -38.37608398 74.42992187 -38.56982422 73.62109375 C-44.20836357 50.69013656 -54.10071865 29.19847815 -64.14892578 7.91992188 C-65 6 -65 6 -65 5 C-64.00484375 5.01160156 -63.0096875 5.02320313 -61.984375 5.03515625 C-42.38410506 5.19708291 -23.64365042 3.62937718 -4.29638672 0.35131836 C-2 0 -2 0 0 0 Z " fill="#351B02" transform="translate(1012,904)"/>
<path d="M0 0 C6.63018799 5.35390384 11.02684355 11.93655147 12.70703125 20.37109375 C13.56018516 28.80419204 11.85888133 36.71090861 6.95703125 43.68359375 C-3.40187943 56.11929087 -21.0815555 56.90203915 -36.2409668 59.23632812 C-38.75424332 59.62476823 -41.2647499 60.02850249 -43.77539062 60.43359375 C-45.40480574 60.68970827 -47.03435856 60.94494854 -48.6640625 61.19921875 C-49.76590126 61.37726044 -49.76590126 61.37726044 -50.88999939 61.55889893 C-61.30592749 63.13516524 -70.55253815 62.89141648 -79.59375 56.828125 C-87.95356725 49.94820007 -91.62488467 42.16328192 -92.66796875 31.55859375 C-92.35563352 22.70909559 -88.42341213 15.47007411 -82.33984375 9.2421875 C-77.22962781 4.57082598 -73.21704266 3.24479513 -66.5078125 1.9375 C-65.84933319 1.80917282 -65.19085388 1.68084564 -64.51242065 1.54862976 C-12.06967552 -8.57419879 -12.06967552 -8.57419879 0 0 Z " fill="#351B02" transform="translate(780.29296875,1354.62890625)"/>
<path d="M0 0 C1.28376328 62.04855836 -6.45838767 111.77812365 -48.37109375 159.14453125 C-49.56503929 160.50454116 -50.74245842 161.8791072 -51.91015625 163.26171875 C-52.53792969 164.00035156 -53.16570313 164.73898437 -53.8125 165.5 C-54.65748047 166.50546875 -54.65748047 166.50546875 -55.51953125 167.53125 C-57 169 -57 169 -59 169 C-57.78561924 165.03342968 -56.27547816 161.36792875 -54.43725586 157.65063477 C-32.29445913 112.78646273 -22.02340645 60.52666083 -32 11 C-30.9644397 10.66005005 -30.9644397 10.66005005 -29.90795898 10.31323242 C-26.75006811 9.27454659 -23.59378167 8.23106505 -20.4375 7.1875 C-18.80844727 6.65286133 -18.80844727 6.65286133 -17.14648438 6.10742188 C-12.40459369 4.53640034 -4.90589877 0 0 0 Z " fill="#351B02" transform="translate(1060,889)"/>
<path d="M0 0 C-0.2729241 3.17919699 -1.1283038 4.12625748 -3.44921875 6.41015625 C-4.52033131 7.30432587 -5.60042161 8.18781034 -6.6875 9.0625 C-7.55665039 9.77986328 -7.55665039 9.77986328 -8.44335938 10.51171875 C-13.1551049 14.37828544 -17.95757183 18.13081682 -22.76635742 21.87548828 C-28.41407794 26.28647598 -33.88004967 30.89364174 -39.31738281 35.56005859 C-41.09902168 37.08474026 -42.8887341 38.59955505 -44.6796875 40.11328125 C-52.74761025 46.94606816 -52.74761025 46.94606816 -60.31811523 54.3190918 C-62.02210202 56.02208919 -63.79542515 57.57846409 -65.62890625 59.140625 C-70.3083266 63.20994235 -74.69013828 67.54288707 -79.0625 71.9375 C-79.82626953 72.69740234 -80.59003906 73.45730469 -81.37695312 74.24023438 C-85.59951838 78.47002387 -89.65794712 82.78367489 -93.54492188 87.32446289 C-95.27206096 89.31328093 -97.10015366 91.17614751 -99 93 C-98.57289626 87.39145357 -98.00922304 81.85865702 -97.0625 76.3125 C-96.32438071 71.86223331 -95.86717405 67.4790495 -95.56640625 62.9765625 C-95.49220459 61.90237061 -95.41800293 60.82817871 -95.34155273 59.72143555 C-95.19883809 57.55722501 -95.07166813 55.39192506 -94.96118164 53.22583008 C-94.89406982 52.22189209 -94.82695801 51.2179541 -94.7578125 50.18359375 C-94.7077002 49.28181396 -94.65758789 48.38003418 -94.60595703 47.45092773 C-93.21505564 41.8251183 -87.22184187 38.95167326 -82.625 36 C-81.88894531 35.52651123 -81.15289063 35.05302246 -80.39453125 34.56518555 C-70.87445854 28.53916108 -60.98352564 23.21086692 -51 18 C-50.28972656 17.62246582 -49.57945313 17.24493164 -48.84765625 16.85595703 C-39.0141566 11.67389744 -28.70447661 8.02299409 -18.1875 4.5 C-17.51517334 4.27391052 -16.84284668 4.04782104 -16.15014648 3.81488037 C-4.73378443 0 -4.73378443 0 0 0 Z " fill="#3B6A00" transform="translate(1484,1011)"/>
<path d="M0 0 C0.99 0.495 0.99 0.495 2 1 C4.96879279 13.75058443 3.65799604 27.83182051 -2.6875 39.3125 C-7.62337773 46.88651928 -14.19167921 52.57579852 -23 55 C-29.61425623 55.59449291 -36.22582613 55.51678919 -42.86181641 55.49072266 C-54.58005781 55.29284485 -54.58005781 55.29284485 -65.45117188 59.24023438 C-65.96228516 59.49095703 -66.47339844 59.74167969 -67 60 C-67.66 59.67 -68.32 59.34 -69 59 C-56.80419416 42.87948005 -43.46819157 35.38988634 -24 31 C-37.40722649 33.84347576 -49.48838004 37.25179426 -61 45 C-60.81071187 35.94858584 -59.03037324 28.50453479 -52.875 21.625 C-43.86930633 16.53482532 -35.25740918 15.37367804 -25.05688477 14.77099609 C-17.05293027 14.2441679 -8.75138493 13.08970169 -3 7 C-1.77527166 4.69929575 -0.89890522 2.46016166 0 0 Z " fill="#3B6A00" transform="translate(1223,739)"/>
<path d="M0 0 C4.17508885 1.64381518 7.02711855 4.68317029 10.125 7.8125 C10.69903564 8.3914502 11.27307129 8.97040039 11.86450195 9.56689453 C17.47315984 15.32755913 22.33371607 21.46527826 27 28 C27.77472656 29.05703125 28.54945312 30.1140625 29.34765625 31.203125 C40.82570053 47.31233105 49.49646694 65.6143172 56.9375 83.875 C57.36869141 84.92026855 57.79988281 85.96553711 58.24414062 87.04248047 C58.62634766 88.01588379 59.00855469 88.98928711 59.40234375 89.9921875 C59.73741943 90.84151855 60.07249512 91.69084961 60.41772461 92.56591797 C61.47173222 96.97197913 59.8809608 100.61018527 58.22265625 104.6875 C57.87396484 105.55117187 57.52527344 106.41484375 57.16601562 107.3046875 C56.61977539 108.63886719 56.61977539 108.63886719 56.0625 110 C55.70220703 110.88945313 55.34191406 111.77890625 54.97070312 112.6953125 C54.29764132 114.35627533 53.6228026 116.01652009 52.94555664 117.67578125 C51.95389647 120.11332444 50.97522969 122.55584243 50 125 C49.34 125 48.68 125 48 125 C47.82984375 124.22736816 47.6596875 123.45473633 47.484375 122.65869141 C43.45114854 104.49576402 38.89674754 86.66613738 33 69 C32.57533447 67.72406982 32.57533447 67.72406982 32.14208984 66.42236328 C24.93318406 45.10552129 15.09773009 25.19238434 3.24584961 6.09277344 C2.06047039 4.10157793 1.00732536 2.08599189 0 0 Z " fill="#005500" transform="translate(1150,965)"/>
<path d="M0 0 C-1.2065625 1.36125 -1.2065625 1.36125 -2.4375 2.75 C-6.22677739 7.34209039 -6.38385228 11.05028967 -6 17 C-4.52957716 23.85366578 -1.75339161 30.32140689 1.01806641 36.734375 C2.62582893 40.56788059 3 42.69063904 3 47 C-5.415 47.495 -5.415 47.495 -14 48 C-15.32 42.72 -16.64 37.44 -18 32 C-17.5359375 33.98 -17.5359375 33.98 -17.0625 36 C-16.09626235 40.32408482 -15.48031023 44.59715622 -15 49 C-15.51949219 49.21914063 -16.03898437 49.43828125 -16.57421875 49.6640625 C-21.80665524 52.04332198 -24.57637896 54.40256603 -28 59 C-28.98578412 60.0140166 -29.98266293 61.017643 -31 62 C-36.64142988 51.51545579 -41.17969807 41.3947746 -38.3828125 29.33984375 C-34.57639504 17.36478705 -26.98127625 9.74517102 -16 4 C-4.38661906 -1.65924125 -4.38661906 -1.65924125 0 0 Z M-19 19 C-18 21 -18 21 -18 21 Z " fill="#3B6A00" transform="translate(1194,705)"/>
<path d="M0 0 C0.495 0.99 0.495 0.99 1 2 C-5.36802794 12.28681437 -11.90028856 19.71295106 -23.72607422 23.56176758 C-26.76565208 24.14755695 -29.62059805 24.03650995 -32.71484375 23.95703125 C-34.05532309 23.93460377 -35.39581906 23.91315276 -36.73632812 23.89257812 C-38.82281926 23.85587921 -40.90843104 23.81333843 -42.99438477 23.75317383 C-53.82838067 23.45608545 -65.26352581 23.73758648 -74 31 C-71.25599818 24.8259959 -67.93052139 21.44294819 -61.7800293 18.81152344 C-56.34578216 17.22520242 -50.79450289 17.67721155 -45.1875 17.875 C-31.59557812 18.27109486 -19.91030944 17.94020629 -8.375 10.25 C-5.11727938 7.16373836 -2.58305155 3.65710391 0 0 Z " fill="#3B6A00" transform="translate(1224,779)"/>
<path d="" fill="#301800" transform="translate(0,0)"/>
<path d="" fill="#3D6700" transform="translate(0,0)"/>
<path d="" fill="#000000" transform="translate(0,0)"/>
</svg>
